<svg class="animated" id="freepik_stories-user-flow" xmlns="http://www.w3.org/2000/svg" viewBox="0 0 500 500" version="1.1" xmlns:xlink="http://www.w3.org/1999/xlink" xmlns:svgjs="http://svgjs.com/svgjs"><style>svg#freepik_stories-user-flow:not(.animated) .animable {opacity: 0;}svg#freepik_stories-user-flow.animated #freepik--Plant--inject-72 {animation: 1s 1 forwards cubic-bezier(.36,-0.01,.5,1.38) fadeIn,1.5s Infinite  linear floating;animation-delay: 0s,1s;}svg#freepik_stories-user-flow.animated #freepik--Screens--inject-72 {animation: 1s 1 forwards cubic-bezier(.36,-0.01,.5,1.38) zoomOut;animation-delay: 0s;}svg#freepik_stories-user-flow.animated #freepik--Character--inject-72 {animation: 1s 1 forwards cubic-bezier(.36,-0.01,.5,1.38) slideRight,1.5s Infinite  linear shake;animation-delay: 0s,1s;}svg#freepik_stories-user-flow.animated #freepik--Floor--inject-72 {animation: 1s 1 forwards cubic-bezier(.36,-0.01,.5,1.38) slideDown;animation-delay: 0s;}            @keyframes fadeIn {                0% {                    opacity: 0;                }                100% {                    opacity: 1;                }            }                    @keyframes floating {                0% {                    opacity: 1;                    transform: translateY(0px);                }                50% {                    transform: translateY(-10px);                }                100% {                    opacity: 1;                    transform: translateY(0px);                }            }                    @keyframes zoomOut {                0% {                    opacity: 0;                    transform: scale(1.5);                }                100% {                    opacity: 1;                    transform: scale(1);                }            }                    @keyframes slideRight {                0% {                    opacity: 0;                    transform: translateX(30px);                }                100% {                    opacity: 1;                    transform: translateX(0);                }            }                    @keyframes shake {                10%, 90% {                    transform: translate3d(-1px, 0, 0);                  }                  20%, 80% {                    transform: translate3d(2px, 0, 0);                  }                  30%, 50%, 70% {                    transform: translate3d(-4px, 0, 0);                  }                  40%, 60% {                    transform: translate3d(4px, 0, 0);                  }            }                    @keyframes slideDown {                0% {                    opacity: 0;                    transform: translateY(-30px);                }                100% {                    opacity: 1;                    transform: translateY(0);                }            }        </style><g id="freepik--Plant--inject-72" class="animable animator-active" style="transform-origin: 63.3329px 400.642px;"><path d="M75.12,389.74c4.09-2.11,8.91-2.38,13.45-1.63,2.44.4,5,1.13,6.65,3s2,5.06.07,6.64a6.4,6.4,0,0,1-4.19,1.06c-3.56,0-7.5-.67-10.34,1.47-1.63,1.22-2.7,3.25-4.64,3.85a4.57,4.57,0,0,1-5-2.24,7.8,7.8,0,0,1-.57-5.78A8.82,8.82,0,0,1,75.12,389.74Z" style="fill: rgb(5, 36, 97); transform-origin: 83.4207px 395.986px;" id="elprlbb0x3jq" class="animable"></path><path d="M65.75,371.65c2.5,3.57,7.36,2.39,9.62.21s3.2-5.35,4.07-8.36c2-6.89,4-14.11,2.51-21.13a11.8,11.8,0,0,0-2.7-5.74,6.11,6.11,0,0,0-5.81-1.93c-2.45.64-4,3-5.08,5.33a50.37,50.37,0,0,0-5,21.61c0,3.48.39,7.13,2.36,10" style="fill: rgb(5, 36, 97); transform-origin: 72.914px 354.25px;" id="elvwpqvdr5ass" class="animable"></path><path d="M58.88,376.77c2.71-3.22,3.23-7.92,2-12a23.08,23.08,0,0,0-7.08-10.28A38.17,38.17,0,0,0,41.13,347a13.71,13.71,0,0,0-5.71-1,6,6,0,0,0-4.79,2.9c-1.34,2.55-.06,5.64,1.33,8.16a97,97,0,0,0,8.33,12.69c2.5,3.22,5.36,6.4,9.17,7.85s7.76,1.29,9.78-1.35" style="fill: rgb(5, 36, 97); transform-origin: 45.787px 362.25px;" id="elh6cmaq82oq5" class="animable"></path><path d="M65.58,425.55a8,8,0,0,0,.23-1.63c.11-1.18.26-2.66.43-4.43a64.61,64.61,0,0,1,1-6.5,50.45,50.45,0,0,1,2.37-7.67,28.15,28.15,0,0,1,3.91-6.94,14.7,14.7,0,0,1,5-4.12,13.8,13.8,0,0,1,4.17-1.3,7.14,7.14,0,0,0,1.61-.23,7.42,7.42,0,0,0-1.64,0,12.48,12.48,0,0,0-4.35,1.13A14.61,14.61,0,0,0,73,398,28,28,0,0,0,69,405.07a47,47,0,0,0-2.34,7.8,55.76,55.76,0,0,0-.87,6.58c-.14,1.88-.19,3.4-.21,4.46A7,7,0,0,0,65.58,425.55Z" style="fill: rgb(38, 50, 56); transform-origin: 74.9159px 409.117px;" id="elw3wgpmipjfl" class="animable"></path><path d="M65.88,422.14a2.8,2.8,0,0,0,.05-.76c0-.56,0-1.28,0-2.15,0-1.87,0-4.58.1-7.92.16-6.68.74-13.87,1.85-24,1-9.53,2.47-20.63,4-27.84.32-1.64.64-3.12.94-4.41s.54-2.41.77-3.32.38-1.54.51-2.09a3.13,3.13,0,0,0,.13-.75,3.71,3.71,0,0,0-.26.71c-.17.54-.37,1.23-.63,2.07s-.56,2-.88,3.29-.7,2.76-1,4.4a248,248,0,0,0-4.16,25.83c-1.11,10.16-1.61,19.41-1.66,26.11,0,3.35,0,6.06.12,7.94.06.87.1,1.58.13,2.15A3.79,3.79,0,0,0,65.88,422.14Z" style="fill: rgb(38, 50, 56); transform-origin: 69.935px 385.52px;" id="elkpgenwrski" class="animable"></path><path d="M65.93,404.29a13.34,13.34,0,0,0,0-2.25,60.86,60.86,0,0,0-.69-6.09,79.44,79.44,0,0,0-2-8.89,72.77,72.77,0,0,0-3.71-10.51,56.12,56.12,0,0,0-10.91-17,28.17,28.17,0,0,0-2.57-2.38c-.39-.33-.74-.67-1.1-.93l-1-.68a14.3,14.3,0,0,0-1.9-1.22,65.94,65.94,0,0,1,6.21,5.54,58.79,58.79,0,0,1,10.64,16.93,83.67,83.67,0,0,1,3.74,10.41c1,3.27,1.62,6.27,2.11,8.8s.73,4.6.89,6A14.15,14.15,0,0,0,65.93,404.29Z" style="fill: rgb(38, 50, 56); transform-origin: 54.0138px 379.315px;" id="ela47tmhyc0tr" class="animable"></path><polygon points="48.68 435.77 50.47 460.26 81.94 460.26 83.73 435.77 48.68 435.77" style="fill: rgb(38, 50, 56); transform-origin: 66.205px 448.015px;" id="ell43gi7t6c2e" class="animable"></polygon><rect x="45.64" y="426.11" width="41.84" height="9.65" style="fill: rgb(38, 50, 56); transform-origin: 66.56px 430.935px;" id="el34eduqk696r" class="animable"></rect><polygon points="45.65 459.32 45.65 462 47.61 462 86.79 462 86.79 459.32 45.65 459.32" style="fill: rgb(69, 90, 100); transform-origin: 66.22px 460.66px;" id="elvqg48338v0j" class="animable"></polygon><polygon points="49.54 466.71 47.61 462 85.29 462 83.04 466.71 49.54 466.71" style="fill: rgb(69, 90, 100); transform-origin: 66.45px 464.355px;" id="ele4hd6fljjsp" class="animable"></polygon><path d="M83.14,443.77s0,.09-.15.23-.27.37-.47.62L80.69,447l-.08.1-.08-.11L76,440.73h.26L71.85,447l-.14.2-.15-.19-5.26-6.25h.3l-.29.37L61.61,447l-.15.2-.15-.21c-1.6-2.25-3.09-4.36-4.43-6.27h.25L51.67,447l-.1.11L51.5,447c-.72-1.21-1.3-2.17-1.71-2.87l-.44-.77a.89.89,0,0,1-.13-.27,1.6,1.6,0,0,1,.18.24c.13.19.29.44.48.74l1.8,2.82-.17,0,5.37-6.3.14-.15.12.17,4.48,6.24h-.3L66,440.88l.29-.36.15-.19.15.19,5.24,6.26-.29,0L76,440.55l.13-.18.13.18,4.41,6.3h-.16l1.9-2.29c.21-.23.38-.43.51-.59Z" style="fill: rgb(224, 224, 224); transform-origin: 66.18px 443.765px;" id="el45qy7l78ert" class="animable"></path><path d="M84.16,435.61c0,.1-7.88.19-17.6.19S49,435.71,49,435.61s7.88-.2,17.61-.2S84.16,435.5,84.16,435.61Z" style="fill: rgb(69, 90, 100); transform-origin: 66.58px 435.605px;" id="el1khhnn0te05" class="animable"></path><path d="M85.75,462.26c0,.11-8.57.2-19.13.2s-19.14-.09-19.14-.2,8.57-.19,19.14-.19S85.75,462.16,85.75,462.26Z" style="fill: rgb(38, 50, 56); transform-origin: 66.615px 462.265px;" id="elkx722ip174" class="animable"></path></g><g id="freepik--Screens--inject-72" class="animable" style="transform-origin: 243.036px 241.44px;"><path d="M166.2,62.07l-17.73.15a4.41,4.41,0,0,0-4.27,4.53l0,3.22A4.4,4.4,0,0,1,140,74.5l-34.56.29a4.4,4.4,0,0,1-4.34-4.47l0-3.21a4.41,4.41,0,0,0-4.34-4.47l-6.24,0L75,62.82A14,14,0,0,0,61.11,76.89L63,300.63a13.94,13.94,0,0,0,14.07,13.82l91.24-.75a14,14,0,0,0,13.84-14.07L180.26,75.9A14,14,0,0,0,166.2,62.07Z" style="fill: rgb(255, 255, 255); transform-origin: 121.63px 188.26px;" id="eli6hb3hu6yd" class="animable"></path><path d="M166.2,62.07h.47a11.22,11.22,0,0,1,1.42.1,13.08,13.08,0,0,1,5.25,1.76,13.41,13.41,0,0,1,3.2,2.55,13.87,13.87,0,0,1,2.7,4.14,14.55,14.55,0,0,1,1.09,5.65c0,2.06,0,4.26.07,6.58.17,18.59.42,45.47.74,78.7s.65,72.79,1.05,116.72q.06,8.24.14,16.68c0,1.4,0,2.81,0,4.23a14.7,14.7,0,0,1-.5,4.26,14.31,14.31,0,0,1-1.74,3.94,15.13,15.13,0,0,1-2.88,3.25,14.1,14.1,0,0,1-8,3.2c-2.92.11-5.83.07-8.76.12l-17.77.15-36.46.3-18.64.16-9.42.07a14.7,14.7,0,0,1-9.11-2.43,14.23,14.23,0,0,1-5.6-7.58,15.44,15.44,0,0,1-.62-4.72c0-1.57,0-3.14,0-4.7q-.07-9.39-.16-18.65-.16-18.53-.31-36.47c-.2-23.91-.4-47-.59-68.94s-.35-42.85-.52-62.38Q61.1,94.12,61,80.49l0-3.38c0-.56,0-1.13.07-1.69s.13-1.12.27-1.67a14.16,14.16,0,0,1,2.88-5.93,14.1,14.1,0,0,1,11.33-5.14l12.16-.1,5.85,0,2.87,0a4.47,4.47,0,0,1,2.75.74,4.56,4.56,0,0,1,1.72,2.23,7.4,7.4,0,0,1,.31,2.75c0,.45,0,.91,0,1.36a11.63,11.63,0,0,0,.06,1.33,4.42,4.42,0,0,0,1.06,2.32,4.14,4.14,0,0,0,2.14,1.31,4.85,4.85,0,0,0,1.26.11H107l5,0,18.39-.13,8.11-.06c.64,0,1.3,0,1.9,0a4.1,4.1,0,0,0,1.71-.62,4.45,4.45,0,0,0,1.93-2.83,7.92,7.92,0,0,0,.09-1.69c0-.56,0-1.12,0-1.67A8.89,8.89,0,0,1,144.2,66a4.46,4.46,0,0,1,.51-1.49,4.39,4.39,0,0,1,2.21-2,6.82,6.82,0,0,1,2.77-.32l9.05-.06,5.56,0h1.9l-1.9,0-5.56.06-9.05.09a7,7,0,0,0-2.72.32,4.28,4.28,0,0,0-2.14,1.94,4.58,4.58,0,0,0-.49,1.46,8.44,8.44,0,0,0-.06,1.6c0,.55,0,1.1,0,1.67a8.44,8.44,0,0,1-.09,1.73,4.57,4.57,0,0,1-2,2.93,4.19,4.19,0,0,1-1.77.64c-.64.07-1.27,0-1.91,0l-8.11.07-18.4.17-5,0H105.7a4.89,4.89,0,0,1-1.31-.12,4.32,4.32,0,0,1-2.27-1.37A4.72,4.72,0,0,1,101,71a10.39,10.39,0,0,1-.06-1.36c0-.45,0-.9,0-1.36a7.23,7.23,0,0,0-.3-2.67A4.33,4.33,0,0,0,99,63.47a4.25,4.25,0,0,0-2.61-.7l-2.87,0-5.85.05L75.51,63a14.34,14.34,0,0,0-6.07,1.2,14.18,14.18,0,0,0-5,3.84,13.93,13.93,0,0,0-2.82,5.82c-.14.53-.17,1.08-.26,1.63s-.06,1.1-.06,1.66l0,3.38q.12,13.61.25,28.27c.18,19.54.36,40.42.56,62.39s.39,45,.6,68.93q.16,17.94.32,36.47.07,9.27.16,18.66c0,1.56,0,3.13,0,4.7a15.2,15.2,0,0,0,.61,4.6,13.88,13.88,0,0,0,5.44,7.38,14.37,14.37,0,0,0,8.88,2.36l9.42-.08,18.65-.15,36.46-.3,17.76-.14c2.93-.05,5.87,0,8.75-.12a13.7,13.7,0,0,0,7.81-3.11,14.53,14.53,0,0,0,2.8-3.16,13.61,13.61,0,0,0,1.7-3.84,14.58,14.58,0,0,0,.49-4.16c0-1.41,0-2.82,0-4.23q-.06-8.43-.14-16.67c-.36-43.94-.69-83.5-1-116.73s-.47-60.11-.62-78.7c0-2.32,0-4.52-.05-6.58a14.38,14.38,0,0,0-1.06-5.61,14,14,0,0,0-2.66-4.11A13.3,13.3,0,0,0,173.3,64a13,13,0,0,0-5.22-1.79,10,10,0,0,0-1.41-.12Z" style="fill: rgb(38, 50, 56); transform-origin: 121.668px 188.366px;" id="eliutortadc9q" class="animable"></path><path d="M169.09,84.64c0,.06-2.3.15-5.14.19s-5.15,0-5.16,0,2.31-.14,5.15-.19S169.09,84.58,169.09,84.64Z" style="fill: rgb(38, 50, 56); transform-origin: 163.94px 84.7232px;" id="eljob7o2xo8r" class="animable"></path><path d="M169.14,87.27c0,.06-2.31.15-5.15.2s-5.15,0-5.15,0,2.3-.15,5.15-.2S169.14,87.21,169.14,87.27Z" style="fill: rgb(38, 50, 56); transform-origin: 163.99px 87.3604px;" id="ell2ht15hlryi" class="animable"></path><path d="M169.18,89.91c0,.06-2.3.15-5.14.19s-5.15,0-5.16,0,2.31-.14,5.15-.19S169.18,89.85,169.18,89.91Z" style="fill: rgb(38, 50, 56); transform-origin: 164.03px 89.9932px;" id="el5qd136554bn" class="animable"></path><path d="M75.5,93.74h.21l.6,0,2.19-.07-.06.06c0-.49,0-1,0-1.59,0-.3,0-.58,0-.92a.86.86,0,0,1,.73-.69c.36,0,.67,0,1.05,0a.84.84,0,0,1,.73.84c0,.75,0,1.52,0,2.33l-.11-.1,2.78,0-.11.1c0-1.11,0-2.27-.06-3.45,0-.3,0-.59,0-.88a.91.91,0,0,0-.4-.65l-1.22-1.19-1.18-1.14c-.19-.19-.39-.37-.57-.56s-.36-.38-.58-.42a.74.74,0,0,0-.64.13c-.16.14-.34.34-.51.51-.34.35-.67.68-1,1-.63.66-1.27,1.26-1.74,1.82a1.93,1.93,0,0,0-.13,1v1c0,.6,0,1.12,0,1.57v1c0,.23,0,.36,0,.36a1.29,1.29,0,0,1,0-.33q0-.41,0-1c0-.46,0-1,0-1.59,0-.31,0-.65,0-1,0-.17,0-.36,0-.54a1,1,0,0,1,.15-.58c.5-.64,1.11-1.2,1.74-1.87l1-1c.18-.18.32-.36.53-.54a.94.94,0,0,1,.81-.16,1.49,1.49,0,0,1,.67.47l.57.55L82,87.28l1.22,1.18a2,2,0,0,1,.31.33.8.8,0,0,1,.15.47c0,.29,0,.59,0,.88,0,1.19,0,2.34.06,3.46v.11h-.11l-2.77,0h-.1v-.1c0-.8,0-1.58,0-2.32a.66.66,0,0,0-.56-.67c-.32,0-.7,0-1,0a.67.67,0,0,0-.59.55c0,.28,0,.6,0,.88,0,.58,0,1.11,0,1.6v.06H75.69C75.56,93.75,75.49,93.75,75.5,93.74Z" style="fill: rgb(38, 50, 56); transform-origin: 79.6012px 89.4792px;" id="elc565epvefw" class="animable"></path><g id="el1x9wcn54j3p"><rect x="71.56" y="107.28" width="97.27" height="17.69" rx="7.46" style="fill: rgb(245, 245, 245); transform-origin: 120.195px 116.125px; transform: rotate(-0.51deg);" class="animable"></rect></g><path d="M161.44,124.61l.56-.06a8.34,8.34,0,0,0,1.6-.32,7.66,7.66,0,0,0,2.33-1.25,7.39,7.39,0,0,0,2.2-2.84,7,7,0,0,0,.56-2.06,18.71,18.71,0,0,0,.05-2.39,16.38,16.38,0,0,0-.14-2.59,7.11,7.11,0,0,0-1-2.58,7.38,7.38,0,0,0-4.94-3.37,20.83,20.83,0,0,0-3.38-.1l-3.59,0L79,107.82a7.28,7.28,0,0,0-7.2,6.74c0,.88,0,1.81,0,2.71a8.86,8.86,0,0,0,.3,2.63,7.32,7.32,0,0,0,3,4.09,6.87,6.87,0,0,0,2.37,1,10.85,10.85,0,0,0,2.56.17l5.15,0,10-.09,34.51-.26,23.26-.15,6.33,0h1.64c.37,0,.56,0,.56,0l-.56,0-1.64,0-6.33.09-23.26.26-34.5.35-10,.09-5.15,0a11.29,11.29,0,0,1-2.64-.18,7.38,7.38,0,0,1-2.48-1A7.69,7.69,0,0,1,71.7,120a9,9,0,0,1-.32-2.73c0-.91,0-1.8,0-2.74a7.64,7.64,0,0,1,7.55-7.07l76.76-.63,3.59,0a20.57,20.57,0,0,1,3.43.11,7.62,7.62,0,0,1,5.07,3.49,7.78,7.78,0,0,1,1,2.66,15.7,15.7,0,0,1,.12,2.62,19.06,19.06,0,0,1-.06,2.41,7,7,0,0,1-.6,2.1,7.32,7.32,0,0,1-2.25,2.86,7.76,7.76,0,0,1-2.37,1.24,8.15,8.15,0,0,1-1.63.29Z" style="fill: rgb(38, 50, 56); transform-origin: 120.144px 116.133px;" id="elirogwajpm2m" class="animable"></path><path d="M162.86,115.32s0-.28-.17-.76a3.25,3.25,0,0,0-1.19-1.67,3,3,0,1,0,0,4.89,3.18,3.18,0,0,0,1.16-1.69c.13-.48.13-.77.16-.77s0,.07,0,.21a2.28,2.28,0,0,1,0,.59A3.22,3.22,0,0,1,161.7,118a3.31,3.31,0,0,1-3.16.55,3.36,3.36,0,0,1-.06-6.33,3.33,3.33,0,0,1,3.17.48,3.15,3.15,0,0,1,1.17,1.84,2.61,2.61,0,0,1,.07.6C162.88,115.25,162.88,115.32,162.86,115.32Z" style="fill: rgb(38, 50, 56); transform-origin: 159.584px 115.374px;" id="el5pf2n40uc7h" class="animable"></path><path d="M164.68,120.83a6.2,6.2,0,0,1-1.59-1.41,6,6,0,0,1-1.31-1.67,6.43,6.43,0,0,1,1.58,1.42A6.64,6.64,0,0,1,164.68,120.83Z" style="fill: rgb(38, 50, 56); transform-origin: 163.23px 119.29px;" id="elisxnbqnqrc" class="animable"></path><path d="M84.67,114.67H82.94v-.45l4,0v.46H85.2l0,4.49h-.53Z" style="fill: rgb(224, 224, 224); transform-origin: 84.94px 116.695px;" id="el611lystb0eu" class="animable"></path><path d="M90.52,117.4l-3.1,0a1.38,1.38,0,0,0,1.47,1.28,1.48,1.48,0,0,0,1.13-.5l.29.32a2,2,0,0,1-3.39-1.25,1.79,1.79,0,0,1,1.8-1.9,1.76,1.76,0,0,1,1.81,1.86C90.53,117.29,90.52,117.34,90.52,117.4Zm-3.1-.35,2.63,0a1.32,1.32,0,0,0-2.63,0Z" style="fill: rgb(224, 224, 224); transform-origin: 88.7248px 117.21px;" id="elmc7hrtge53" class="animable"></path><path d="M93.83,119.07l-1.2-1.54-1.17,1.56H90.9l1.45-1.92-1.41-1.79h.56l1.13,1.44,1.1-1.46h.55l-1.38,1.81,1.5,1.9Z" style="fill: rgb(224, 224, 224); transform-origin: 92.65px 117.225px;" id="eliw1b2fqq9g9" class="animable"></path><path d="M97.18,118.82a1.2,1.2,0,0,1-.78.26A1,1,0,0,1,95.31,118l0-2.24h-.67v-.43h.66v-.81h.51v.81h1.13v.43H95.79l0,2.21c0,.44.23.68.64.67a.8.8,0,0,0,.55-.19Z" style="fill: rgb(224, 224, 224); transform-origin: 95.91px 116.802px;" id="elvw4m1owyfne" class="animable"></path><g id="elvvoy4bul9sh"><rect x="75.96" y="139.97" width="21.29" height="21.29" style="fill: rgb(5, 36, 97); transform-origin: 86.605px 150.615px; transform: rotate(-0.51deg);" class="animable"></rect></g><path d="M138.13,141.66c0,.1-7.11.24-15.89.32s-15.9.06-15.9,0,7.11-.24,15.89-.32S138.13,141.56,138.13,141.66Z" style="fill: rgb(5, 36, 97); transform-origin: 122.235px 141.813px;" id="elzqlu9nn8l8" class="animable"></path><path d="M163.55,148c0,.1-12.8.3-28.58.44s-28.58.17-28.58.07,12.79-.3,28.58-.44S163.55,147.86,163.55,148Z" style="fill: rgb(38, 50, 56); transform-origin: 134.97px 148.246px;" id="elor4r4lopnjf" class="animable"></path><path d="M162.92,152.63c0,.1-12.65.29-28.24.43s-28.25.17-28.25.07,12.64-.29,28.24-.43S162.92,152.53,162.92,152.63Z" style="fill: rgb(38, 50, 56); transform-origin: 134.675px 152.88px;" id="el6dkgfzlr436" class="animable"></path><path d="M139.82,157.28c0,.1-7.46.25-16.67.33s-16.68.06-16.68,0,7.47-.24,16.68-.32S139.82,157.18,139.82,157.28Z" style="fill: rgb(38, 50, 56); transform-origin: 123.145px 157.44px;" id="elqxk197624of" class="animable"></path><g id="el8jw2zm3xsb"><rect x="76.27" y="175.3" width="21.29" height="21.29" style="fill: rgb(5, 36, 97); transform-origin: 86.915px 185.945px; transform: rotate(-0.572939deg);" class="animable"></rect></g><path d="M138.45,177.13c0,.1-7.12.25-15.9.32s-15.9.06-15.9,0,7.11-.24,15.9-.32S138.45,177,138.45,177.13Z" style="fill: rgb(5, 36, 97); transform-origin: 122.55px 177.275px;" id="el8q2ifkpsduq" class="animable"></path><path d="M163.86,183.43c0,.1-12.79.3-28.57.44s-28.58.17-28.58.07,12.79-.3,28.57-.43S163.86,183.33,163.86,183.43Z" style="fill: rgb(38, 50, 56); transform-origin: 135.285px 183.688px;" id="el7g3lqchmd26" class="animable"></path><path d="M163.23,188.1c0,.1-12.64.29-28.24.43s-28.24.17-28.24.07,12.64-.29,28.24-.43S163.23,188,163.23,188.1Z" style="fill: rgb(38, 50, 56); transform-origin: 134.99px 188.35px;" id="eluts5yprbglh" class="animable"></path><path d="M140.13,192.75c0,.1-7.46.25-16.67.33s-16.67.07-16.67,0,7.46-.25,16.67-.33S140.13,192.65,140.13,192.75Z" style="fill: rgb(38, 50, 56); transform-origin: 123.46px 192.909px;" id="ela8e1ezw9rn6" class="animable"></path><g id="elrgiqm0lj4yh"><rect x="76.59" y="210.77" width="21.29" height="21.29" style="fill: rgb(69, 90, 100); transform-origin: 87.235px 221.415px; transform: rotate(-0.51deg);" class="animable"></rect></g><path d="M138.76,212.6c0,.1-7.12.25-15.9.32s-15.9.06-15.9,0,7.12-.24,15.9-.32S138.76,212.5,138.76,212.6Z" style="fill: rgb(5, 36, 97); transform-origin: 122.86px 212.751px;" id="elz1cattr8rr" class="animable"></path><path d="M164.17,218.91c0,.1-12.79.29-28.57.43s-28.58.17-28.58.07,12.79-.29,28.58-.43S164.17,218.81,164.17,218.91Z" style="fill: rgb(38, 50, 56); transform-origin: 135.595px 219.16px;" id="elbonqde133jp" class="animable"></path><path d="M163.54,223.57c0,.1-12.64.29-28.24.43s-28.24.17-28.24.07,12.64-.29,28.24-.43S163.54,223.47,163.54,223.57Z" style="fill: rgb(38, 50, 56); transform-origin: 135.3px 223.82px;" id="elad0s188o016" class="animable"></path><path d="M140.45,228.22c0,.1-7.47.25-16.67.33s-16.68.07-16.68,0,7.46-.25,16.67-.33S140.45,228.12,140.45,228.22Z" style="fill: rgb(38, 50, 56); transform-origin: 123.775px 228.379px;" id="eld6uajmf5ppb" class="animable"></path><g id="elzu159cczi4"><rect x="76.9" y="246.24" width="21.29" height="21.29" style="fill: rgb(5, 36, 97); transform-origin: 87.545px 256.885px; transform: rotate(-0.51deg);" class="animable"></rect></g><path d="M139.07,248.07c0,.1-7.11.25-15.89.32s-15.91.06-15.91,0,7.12-.24,15.9-.32S139.07,248,139.07,248.07Z" style="fill: rgb(69, 90, 100); transform-origin: 123.17px 248.226px;" id="elrwnxtr8kye" class="animable"></path><path d="M164.49,254.38c0,.1-12.8.29-28.58.43s-28.58.17-28.58.07,12.79-.29,28.58-.43S164.49,254.28,164.49,254.38Z" style="fill: rgb(38, 50, 56); transform-origin: 135.91px 254.63px;" id="eluyi7oltgsa" class="animable"></path><path d="M163.85,259c0,.1-12.64.3-28.23.43s-28.25.17-28.25.07,12.64-.29,28.24-.43S163.85,258.94,163.85,259Z" style="fill: rgb(38, 50, 56); transform-origin: 135.61px 259.257px;" id="el0zegkires89" class="animable"></path><path d="M140.76,263.69c0,.1-7.46.25-16.67.33s-16.68.07-16.68,0,7.46-.25,16.67-.33S140.76,263.59,140.76,263.69Z" style="fill: rgb(38, 50, 56); transform-origin: 124.085px 263.849px;" id="ele8t8qplehbw" class="animable"></path><g id="el1vdad17d5e6"><rect x="77.21" y="281.71" width="21.29" height="21.29" style="fill: rgb(224, 224, 224); transform-origin: 87.855px 292.355px; transform: rotate(-0.572939deg);" class="animable"></rect></g><path d="M139.39,283.54c0,.1-7.12.25-15.9.33s-15.9.05-15.9-.05,7.11-.24,15.89-.32S139.38,283.44,139.39,283.54Z" style="fill: rgb(224, 224, 224); transform-origin: 123.49px 283.683px;" id="elf7rthxsabaw" class="animable"></path><path d="M164.8,289.85c0,.1-12.8.29-28.58.43s-28.58.17-28.58.07,12.8-.29,28.58-.43S164.8,289.75,164.8,289.85Z" style="fill: rgb(235, 235, 235); transform-origin: 136.22px 290.1px;" id="el4ova39e217q" class="animable"></path><path d="M164.17,294.51c0,.1-12.65.3-28.24.43s-28.24.17-28.25.07,12.65-.29,28.25-.43S164.17,294.41,164.17,294.51Z" style="fill: rgb(235, 235, 235); transform-origin: 135.925px 294.759px;" id="elxthgs3cpybk" class="animable"></path><path d="M141.07,299.16c0,.1-7.46.25-16.67.33s-16.68.07-16.68,0,7.47-.25,16.68-.33S141.07,299.06,141.07,299.16Z" style="fill: rgb(235, 235, 235); transform-origin: 124.395px 299.319px;" id="elpjzg1nwunc" class="animable"></path><g id="el2mplid4t8zx"><g style="opacity: 0.3; transform-origin: 87.545px 256.885px;" class="animable"><g id="elqmie3poykqh"><rect x="76.9" y="246.24" width="21.29" height="21.29" class="animable" style="transform-origin: 87.545px 256.885px; transform: rotate(-0.51deg);"></rect></g></g></g><path d="M415.37,305.35l-11.84-.08a2.94,2.94,0,0,0-2.89,3l0,2.14a2.93,2.93,0,0,1-2.89,3l-23.06-.16a2.94,2.94,0,0,1-2.86-3l0-2.14a3,3,0,0,0-2.86-3l-4.16,0-10.35-.08a9.3,9.3,0,0,0-9.38,9.23l-.86,96a9.29,9.29,0,0,0,9.24,9.35l60.91.42a9.29,9.29,0,0,0,9.38-9.22l.86-96A9.3,9.3,0,0,0,415.37,305.35Z" style="fill: rgb(255, 255, 255); transform-origin: 384.416px 362.53px;" id="eli59p508z3dd" class="animable"></path><path d="M415.37,305.35l1,0a9.57,9.57,0,0,1,2.79.76,9.39,9.39,0,0,1,5.5,9c-.08,9.71-.2,23.74-.34,41.08-.07,8.67-.15,18.17-.24,28.37q-.06,7.65-.14,15.81c0,2.71,0,5.47-.07,8.26a17.2,17.2,0,0,1-.31,4.22,9.33,9.33,0,0,1-2,3.8,9.65,9.65,0,0,1-3.5,2.55,10.1,10.1,0,0,1-4.32.73l-8.91-.06-18.37-.12-19-.13-9.74-.07c-1.63,0-3.26,0-4.92-.07a9.37,9.37,0,0,1-4.66-1.65,9.47,9.47,0,0,1-3.16-3.8,10.07,10.07,0,0,1-.86-4.83q0-4.9.09-9.74.09-9.67.17-19c.12-12.48.23-24.52.33-36q.07-8.6.16-16.76c0-2.71.05-5.39.07-8,0-1.32,0-2.63,0-3.93a15.53,15.53,0,0,1,.3-3.85,9.38,9.38,0,0,1,4.48-5.86,9.24,9.24,0,0,1,3.47-1.15c1.22-.13,2.41-.05,3.6-.06l6.95.05,3.37,0h1.66a3,3,0,0,1,1.6.4,3.13,3.13,0,0,1,1.49,2.76c0,.53,0,1.06,0,1.58a3.8,3.8,0,0,0,.16,1.51,2.85,2.85,0,0,0,2.14,1.88c1,.1,2,0,3,.07l11,.08,9.6.08a2.9,2.9,0,0,0,2.78-2.61c0-.66,0-1.33,0-2a3.82,3.82,0,0,1,.32-1.84,3,3,0,0,1,2.82-1.66l3,0,4.72,0,3.9.05h-3.9l-4.72,0-3,0a2.86,2.86,0,0,0-2.74,1.63,3.61,3.61,0,0,0-.31,1.8c0,.65,0,1.3,0,2a3,3,0,0,1-2.86,2.7l-9.61-.06-11-.07c-1,0-2,0-3-.07a3,3,0,0,1-2.25-2,4,4,0,0,1-.17-1.56c0-.52,0-1.05,0-1.58a3,3,0,0,0-1.43-2.63,2.77,2.77,0,0,0-1.53-.38h-1.65l-3.37,0-6.95-.05a35.69,35.69,0,0,0-3.58.06,9.22,9.22,0,0,0-7.8,6.89,15.62,15.62,0,0,0-.3,3.82c0,1.29,0,2.6,0,3.92,0,2.63-.05,5.31-.07,8q-.07,8.14-.15,16.75c-.1,11.47-.2,23.51-.31,36q-.09,9.36-.17,19,0,4.83-.09,9.74a10.05,10.05,0,0,0,.83,4.75,9.36,9.36,0,0,0,3.1,3.71,9.16,9.16,0,0,0,4.56,1.61c1.63.08,3.28,0,4.91.07l9.73.07,19,.13,18.37.14,8.91.06a10.13,10.13,0,0,0,4.24-.71,9.53,9.53,0,0,0,3.43-2.51,9.15,9.15,0,0,0,1.93-3.72,17.1,17.1,0,0,0,.3-4.17c0-2.79.06-5.55.08-8.26q.08-8.16.15-15.81c.09-10.2.18-19.7.26-28.37.17-17.34.31-31.37.41-41.09a9.37,9.37,0,0,0-1.82-6,9.22,9.22,0,0,0-3.62-2.94,9.86,9.86,0,0,0-2.78-.78Z" style="fill: rgb(38, 50, 56); transform-origin: 384.383px 362.389px;" id="eltl94ap28mr" class="animable"></path><g id="el9sqdf0h5f3"><rect x="352.25" y="332.72" width="64.36" height="44.69" style="fill: rgb(5, 36, 97); transform-origin: 384.43px 355.065px; transform: rotate(0.14deg);" class="animable"></rect></g><g id="el41j28ep7auv"><circle cx="384.43" cy="354.98" r="9.34" style="fill: rgb(255, 255, 255); transform-origin: 384.43px 354.98px; transform: rotate(-11.33deg);" class="animable"></circle></g><polygon points="382.13 354.98 382.14 350.77 385.78 352.88 389.42 354.99 385.77 357.09 382.12 359.18 382.13 354.98" style="fill: rgb(5, 36, 97); transform-origin: 385.77px 354.975px;" id="elchv5zdv5snq" class="animable"></polygon><path d="M359.15,384v-.72a.09.09,0,0,1,.13-.08l.62.36.62.37a.08.08,0,0,1,0,.14l-.62.36-.63.36a.08.08,0,0,1-.12-.07Z" style="fill: rgb(38, 50, 56); transform-origin: 359.856px 383.996px;" id="ellf4lr2133sc" class="animable"></path><path d="M365,383.49h-.54a.08.08,0,0,0-.08.09v1a.09.09,0,0,0,.09.08H365l.83.84v-2.8Z" style="fill: rgb(38, 50, 56); transform-origin: 365.105px 384.1px;" id="elz7fx3ohjt0f" class="animable"></path><path d="M361,384.9h0a.14.14,0,0,1-.14-.14v-1.44a.15.15,0,0,1,.15-.15h0a.15.15,0,0,1,.14.15v1.44A.15.15,0,0,1,361,384.9Z" style="fill: rgb(38, 50, 56); transform-origin: 361.005px 384.035px;" id="el8zajftn8civ" class="animable"></path><path d="M366.17,383.18v1.75a1,1,0,0,0,.61-.88A.93.93,0,0,0,366.17,383.18Z" style="fill: rgb(38, 50, 56); transform-origin: 366.475px 384.055px;" id="elqekvl6gjraq" class="animable"></path><path d="M366.17,382.51v.37a1.21,1.21,0,0,1,.88,1.17,1.24,1.24,0,0,1-.89,1.18v.36a1.57,1.57,0,0,0,0-3.08Z" style="fill: rgb(38, 50, 56); transform-origin: 366.792px 384.05px;" id="el2g7ugtta16c" class="animable"></path><path d="M370.68,383.49v1.69h-.24V383.7h-.38v-.21Z" style="fill: rgb(38, 50, 56); transform-origin: 370.37px 384.335px;" id="el0ddyat6c9axs" class="animable"></path><path d="M371,384.05a.16.16,0,0,1,.17-.16.16.16,0,0,1,.16.16.16.16,0,0,1-.16.17A.17.17,0,0,1,371,384.05Zm0,1a.16.16,0,0,1,.17-.16.16.16,0,0,1,.16.16.17.17,0,0,1-.16.17A.17.17,0,0,1,371,385Z" style="fill: rgb(38, 50, 56); transform-origin: 371.161px 384.555px;" id="elxju1bnj8pqa" class="animable"></path><path d="M371.6,384.34c0-.56.29-.87.69-.87s.69.32.69.87-.3.87-.69.87S371.6,384.89,371.6,384.34Zm1.14,0c0-.43-.18-.65-.45-.65s-.45.21-.45.65.18.65.45.65S372.74,384.77,372.74,384.34Z" style="fill: rgb(38, 50, 56); transform-origin: 372.29px 384.34px;" id="el3z5f8gusm8e" class="animable"></path><path d="M373.73,383.49v1.7h-.24V383.7h-.38v-.21Z" style="fill: rgb(38, 50, 56); transform-origin: 373.42px 384.34px;" id="elen8lefk4vta" class="animable"></path><path d="M375.37,383.15h.21l-.8,2.28h-.22Z" style="fill: rgb(38, 50, 56); transform-origin: 375.07px 384.29px;" id="elylr89c57oo" class="animable"></path><path d="M377.59,384.72c0,.31-.26.5-.68.5s-.67-.2-.67-.5a.42.42,0,0,1,.3-.41.39.39,0,0,1-.23-.37c0-.28.24-.46.61-.46s.61.18.61.46a.38.38,0,0,1-.24.37A.41.41,0,0,1,377.59,384.72Zm-.24,0c0-.19-.17-.3-.43-.3s-.43.11-.43.3.16.31.42.31S377.35,384.9,377.35,384.71Zm-.8-.76c0,.17.13.27.37.27s.37-.1.37-.27-.14-.27-.37-.27S376.55,383.78,376.55,384Z" style="fill: rgb(38, 50, 56); transform-origin: 376.915px 384.35px;" id="eloanicf41zof" class="animable"></path><path d="M377.81,384.07a.17.17,0,0,1,.16-.17.17.17,0,0,1,0,.34A.17.17,0,0,1,377.81,384.07Zm0,1a.16.16,0,1,1,.32,0,.16.16,0,1,1-.32,0Z" style="fill: rgb(38, 50, 56); transform-origin: 377.975px 384.565px;" id="elsvg2pg4h15i" class="animable"></path><path d="M378.36,384.35c0-.55.3-.86.7-.86s.69.31.69.87-.3.86-.7.86S378.36,384.91,378.36,384.35Zm1.14,0c0-.44-.18-.66-.44-.66s-.45.22-.45.65.18.66.44.66S379.5,384.79,379.5,384.36Z" style="fill: rgb(38, 50, 56); transform-origin: 379.055px 384.355px;" id="elvhp3i7v46sm" class="animable"></path><path d="M380,384.36c0-.56.3-.87.69-.87s.69.32.69.87-.3.87-.69.87S380,384.91,380,384.36Zm1.14,0c0-.43-.18-.65-.45-.65s-.45.21-.45.65.18.65.45.65S381.12,384.79,381.12,384.36Z" style="fill: rgb(38, 50, 56); transform-origin: 380.69px 384.36px;" id="el7ypfipkeha" class="animable"></path><path d="M353,384.9h0a.3.3,0,0,1-.28-.29v-1.49a.29.29,0,0,1,.29-.29h0a.28.28,0,0,1,.28.29v1.49A.29.29,0,0,1,353,384.9Z" style="fill: rgb(38, 50, 56); transform-origin: 353.005px 383.865px;" id="elr6eds87bror" class="animable"></path><path d="M354.26,384.9h0a.28.28,0,0,1-.28-.29v-1.49a.29.29,0,0,1,.29-.29h0a.29.29,0,0,1,.28.29v1.49A.29.29,0,0,1,354.26,384.9Z" style="fill: rgb(38, 50, 56); transform-origin: 354.265px 383.865px;" id="elkjz4q7fexfd" class="animable"></path><path d="M416.24,381.46l-63.44-.15a.61.61,0,0,1-.61-.61h0a.61.61,0,0,1,.61-.61l63.45.15a.61.61,0,0,1,.61.61h0A.61.61,0,0,1,416.24,381.46Z" style="fill: rgb(224, 224, 224); transform-origin: 384.525px 380.775px;" id="eloyiuz2zelee" class="animable"></path><path d="M376.12,381.36l-23.32-.05a.61.61,0,0,1-.61-.61h0a.61.61,0,0,1,.61-.61l23.32.05a.53.53,0,0,1,.53.53v.17A.52.52,0,0,1,376.12,381.36Z" style="fill: rgb(5, 36, 97); transform-origin: 364.42px 380.725px;" id="elzx7np4aextb" class="animable"></path><path d="M377.27,380.76a1.18,1.18,0,0,1-1.17,1.16,1.17,1.17,0,1,1,1.17-1.16Z" style="fill: rgb(5, 36, 97); transform-origin: 376.1px 380.75px;" id="el9lt93bbb1js" class="animable"></path><path d="M416.35,392.7c0,.15-14.18.23-31.66.19S353,392.7,353,392.55s14.18-.22,31.67-.18S416.35,392.56,416.35,392.7Z" style="fill: rgb(38, 50, 56); transform-origin: 384.675px 392.63px;" id="elo6qnzzfli5" class="animable"></path><path d="M416.34,399c0,.15-14.18.23-31.67.19S353,399,353,398.81s14.17-.22,31.66-.18S416.34,398.82,416.34,399Z" style="fill: rgb(38, 50, 56); transform-origin: 384.67px 398.907px;" id="eluc3zev60zw" class="animable"></path><path d="M416.32,405.22c0,.15-14.18.23-31.66.19s-31.67-.19-31.67-.34,14.18-.22,31.67-.18S416.32,405.08,416.32,405.22Z" style="fill: rgb(38, 50, 56); transform-origin: 384.655px 405.15px;" id="eljye7oq76imm" class="animable"></path><path d="M415.77,132.56l-11.84-.06a2.94,2.94,0,0,0-2.88,3v2.14a2.94,2.94,0,0,1-2.89,3l-23.06-.11a2.93,2.93,0,0,1-2.86-3v-2.14a3,3,0,0,0-2.86-3l-4.17,0-10.35,0a9.29,9.29,0,0,0-9.36,9.24l-.63,148.94a9.3,9.3,0,0,0,9.27,9.32l60.91.28a9.29,9.29,0,0,0,9.35-9.24L425,141.88A9.3,9.3,0,0,0,415.77,132.56Z" style="fill: rgb(255, 255, 255); transform-origin: 384.935px 216.28px;" id="elirdbzd7ejbc" class="animable"></path><path d="M415.77,132.56h.32a6.75,6.75,0,0,1,.94.08,8.82,8.82,0,0,1,3.48,1.21,9.42,9.42,0,0,1,3.88,4.5,9.7,9.7,0,0,1,.68,3.77c0,1.37,0,2.84,0,4.38-.05,12.39-.11,30.3-.19,52.44s-.19,48.49-.31,77.76c0,3.66,0,7.36-.05,11.11-.05,1.86.17,3.79-.4,5.64a10.27,10.27,0,0,1-1.23,2.59,10.12,10.12,0,0,1-2,2.1,9.3,9.3,0,0,1-5.39,2c-1.94,0-3.88,0-5.83,0l-11.84-.06L373.55,300l-12.42-.05-6.28,0a9.82,9.82,0,0,1-6-1.68,9.45,9.45,0,0,1-3.67-5.08,10.07,10.07,0,0,1-.38-3.13c0-1.05,0-2.09,0-3.14q0-6.25.06-12.42,0-12.35.1-24.3c.07-15.93.14-31.29.2-45.93s.13-28.55.19-41.56q0-9.77.08-18.84a19.16,19.16,0,0,1,.29-4.48,9.36,9.36,0,0,1,2-3.89,9.61,9.61,0,0,1,3.48-2.52,10.19,10.19,0,0,1,4.14-.71l8.1,0,3.89,0h1.91a3,3,0,0,1,1.81.55,3.08,3.08,0,0,1,1.09,1.52,5.68,5.68,0,0,1,.16,1.83,15.17,15.17,0,0,0,0,1.79,2.91,2.91,0,0,0,.73,1.55,2.73,2.73,0,0,0,1.45.85,9.59,9.59,0,0,0,1.7.08h3.35l12.26.07,5.4,0c.43,0,.86,0,1.27,0a2.68,2.68,0,0,0,1.14-.4,3,3,0,0,0,1.3-1.88A17,17,0,0,0,401,136a3.65,3.65,0,0,1,.42-2.07,2.88,2.88,0,0,1,1.5-1.28,4.66,4.66,0,0,1,1.84-.18l6,0,5,.05h-5l-6,0a4.71,4.71,0,0,0-1.82.18,2.84,2.84,0,0,0-1.46,1.26,3.56,3.56,0,0,0-.41,2,15.74,15.74,0,0,1-.07,2.26,3,3,0,0,1-1.34,1.94,2.84,2.84,0,0,1-1.17.42c-.43,0-.85,0-1.28,0l-5.4,0-12.26,0h-3.35a10.12,10.12,0,0,1-1.73-.08,2.86,2.86,0,0,1-1.51-.89,3,3,0,0,1-.77-1.61c-.07-.61,0-1.2,0-1.81a5.62,5.62,0,0,0-.15-1.79,3,3,0,0,0-1-1.45c-1-.79-2.38-.46-3.64-.54h-3.89l-8.11,0a10,10,0,0,0-4.07.71,9.41,9.41,0,0,0-3.42,2.48,9,9,0,0,0-2,3.83,18.68,18.68,0,0,0-.29,4.44q0,9.08-.07,18.84c-.05,13-.11,26.92-.17,41.56s-.12,30-.19,45.93q0,11.94-.1,24.3,0,6.17-.05,12.42c0,1.05,0,2.09,0,3.14a9.62,9.62,0,0,0,.37,3.07,9.26,9.26,0,0,0,3.59,5,9.6,9.6,0,0,0,5.91,1.64l6.28,0,12.42.06,24.29.11,11.84.06c1.95,0,3.9,0,5.82,0a9.18,9.18,0,0,0,5.28-1.94,9.92,9.92,0,0,0,1.93-2.06,9.65,9.65,0,0,0,1.21-2.53c.56-1.81.34-3.72.4-5.59,0-3.75,0-7.45.05-11.11.13-29.27.25-55.62.35-77.76s.19-40,.25-52.44c-.06-3.07.36-5.91-.64-8.13a9.36,9.36,0,0,0-3.84-4.48,8.83,8.83,0,0,0-3.47-1.23,9.29,9.29,0,0,0-.93-.09Z" style="fill: rgb(38, 50, 56); transform-origin: 384.933px 216.201px;" id="elukrdrz1ephr" class="animable"></path><path d="M414.62,154.14c0,.14-12.86.26-28.73.26s-28.73-.12-28.73-.26,12.86-.26,28.73-.26S414.62,154,414.62,154.14Z" style="fill: rgb(38, 50, 56); transform-origin: 385.89px 154.14px;" id="eldisq0h6mbgh" class="animable"></path><rect x="359.83" y="250.03" width="52.22" height="36.26" style="fill: rgb(5, 36, 97); transform-origin: 385.94px 268.16px;" id="eli39vv1fd1h" class="animable"></rect><path d="M307.2,169H289.47a4.41,4.41,0,0,0-4.31,4.5v3.22a4.4,4.4,0,0,1-4.3,4.49l-34.56,0a4.4,4.4,0,0,1-4.3-4.5v-3.22a4.41,4.41,0,0,0-4.31-4.5H215.94A14,14,0,0,0,202,182.88l-.05,223.74a14,14,0,0,0,13.94,13.95l91.26.06a14,14,0,0,0,13.95-13.95l.05-223.75A14,14,0,0,0,307.2,169Z" style="fill: rgb(255, 255, 255); transform-origin: 261.55px 294.81px;" id="ellh7mzene6wl" class="animable"></path><path d="M307.2,169l.47,0a9.91,9.91,0,0,1,1.42.11,13.05,13.05,0,0,1,5.23,1.8,13.56,13.56,0,0,1,3.18,2.58,13.76,13.76,0,0,1,2.66,4.17,14.42,14.42,0,0,1,1,5.66q0,3.09,0,6.58c0,18.58,0,45.47.05,78.7s0,72.8,0,116.73v20.9a15,15,0,0,1-.54,4.26,13.94,13.94,0,0,1-1.78,3.93,15.09,15.09,0,0,1-2.9,3.23,14.08,14.08,0,0,1-8.06,3.12c-2.92.09-5.83,0-8.77,0H245l-18.65,0h-9.42a14.7,14.7,0,0,1-9.08-2.51,14.23,14.23,0,0,1-5.53-7.64,15.4,15.4,0,0,1-.58-4.72V382.55q0-18.53,0-36.47c0-23.91,0-47,0-68.94s0-42.85,0-62.39q0-14.66,0-28.27c0-1.13,0-2.26,0-3.38,0-.57,0-1.13.07-1.7s.15-1.12.29-1.66a14.3,14.3,0,0,1,2.93-5.91,14.16,14.16,0,0,1,11.38-5h20.87a4.54,4.54,0,0,1,2.75.77,4.67,4.67,0,0,1,1.71,2.24,7.67,7.67,0,0,1,.28,2.76v1.36a9.75,9.75,0,0,0,0,1.33,4.43,4.43,0,0,0,1,2.33,4.17,4.17,0,0,0,2.13,1.32,4.46,4.46,0,0,0,1.26.13h6.32l18.4,0,8.11,0c.64,0,1.29,0,1.9,0a4.08,4.08,0,0,0,1.7-.6,4.39,4.39,0,0,0,2-2.81,8,8,0,0,0,.11-1.69V174.3a9.88,9.88,0,0,1,.07-1.63,4.73,4.73,0,0,1,.53-1.49,4.4,4.4,0,0,1,2.23-2,7,7,0,0,1,2.77-.3l9.05,0,5.56,0,1.9,0s-.65,0-1.9,0l-5.56,0h-9.05a6.9,6.9,0,0,0-2.73.3,4.24,4.24,0,0,0-2.15,1.91,4.61,4.61,0,0,0-.51,1.46,10.48,10.48,0,0,0-.07,1.6V176a8.33,8.33,0,0,1-.11,1.72,4.56,4.56,0,0,1-2,2.92,4.41,4.41,0,0,1-1.78.63c-.64.06-1.27,0-1.91,0H246.59a4.9,4.9,0,0,1-1.31-.13,4.39,4.39,0,0,1-2.26-1.39,4.73,4.73,0,0,1-1.1-2.46,10.4,10.4,0,0,1,0-1.36v-1.36a7.44,7.44,0,0,0-.28-2.67,4.34,4.34,0,0,0-1.61-2.12,4.2,4.2,0,0,0-2.61-.72H216.51a13.81,13.81,0,0,0-11.15,5,14,14,0,0,0-2.87,5.79c-.14.53-.18,1.08-.28,1.62s-.07,1.11-.07,1.67v31.65c0,19.54,0,40.42,0,62.39v68.94q0,17.93,0,36.47V405.9a14.88,14.88,0,0,0,.57,4.61,13.94,13.94,0,0,0,5.37,7.43,14.42,14.42,0,0,0,8.86,2.44H245l36.46,0h17.76c2.93,0,5.87.05,8.75,0a13.73,13.73,0,0,0,7.84-3,14.59,14.59,0,0,0,2.83-3.14,13.57,13.57,0,0,0,1.73-3.82,14.57,14.57,0,0,0,.53-4.16v-20.9c0-43.93,0-83.5.07-116.73s.06-60.12.08-78.7q0-3.5,0-6.58a14.43,14.43,0,0,0-1-5.62,14,14,0,0,0-2.62-4.14,13.45,13.45,0,0,0-3.15-2.58,13.16,13.16,0,0,0-5.2-1.83,9,9,0,0,0-1.41-.13Z" style="fill: rgb(38, 50, 56); transform-origin: 261.482px 294.814px;" id="ely3ynbwrbaw" class="animable"></path><path d="M310,193.07c0,.06-2.3.13-5.15.15s-5.15,0-5.15-.07,2.31-.12,5.15-.15S310,193,310,193.07Z" style="fill: rgb(38, 50, 56); transform-origin: 304.85px 193.108px;" id="elxvypks38u" class="animable"></path><path d="M310.06,195.7c0,.06-2.31.13-5.15.16s-5.15,0-5.15-.07,2.3-.13,5.14-.15S310.05,195.64,310.06,195.7Z" style="fill: rgb(38, 50, 56); transform-origin: 304.91px 195.752px;" id="el5njer2kffx" class="animable"></path><path d="M310.08,198.34c0,.06-2.31.13-5.15.15s-5.15,0-5.15-.07,2.3-.12,5.15-.15S310.08,198.28,310.08,198.34Z" style="fill: rgb(38, 50, 56); transform-origin: 304.93px 198.379px;" id="elyep19r5ex29" class="animable"></path><path d="M212,200l.22,0,.59,0,2.2-.05L215,200c0-.48,0-1,0-1.59,0-.3,0-.58,0-.92a.85.85,0,0,1,.74-.68c.35,0,.66,0,1,0a.86.86,0,0,1,.72.85l0,2.32-.11-.1,2.78,0-.11.1c0-1.11,0-2.27,0-3.45v-.88a.86.86,0,0,0-.39-.66l-1.21-1.2-1.17-1.15-.57-.56a1.27,1.27,0,0,0-.57-.43.76.76,0,0,0-.64.12l-.51.51-1,1c-.62.65-1.28,1.24-1.75,1.8a2,2,0,0,0-.14,1v1c0,.6,0,1.13,0,1.58s0,.73,0,1a2.81,2.81,0,0,1,0,.36s0-.11,0-.33l0-1c0-.45,0-1,0-1.58,0-.32,0-.65,0-1,0-.18,0-.36,0-.55a1.13,1.13,0,0,1,.16-.58c.51-.62,1.12-1.18,1.75-1.85l1-1c.18-.18.33-.35.54-.53a.94.94,0,0,1,.8-.16,1.51,1.51,0,0,1,.67.47l.57.56,1.17,1.15,1.22,1.2a3.39,3.39,0,0,1,.31.33.86.86,0,0,1,.14.47c0,.29,0,.59,0,.88,0,1.19,0,2.34,0,3.46v.11h-.11l-2.77,0h-.11V200c0-.81,0-1.59,0-2.33a.66.66,0,0,0-.56-.67c-.32,0-.69,0-1,0a.69.69,0,0,0-.59.54c0,.28,0,.61,0,.89v1.66h-.07l-2.23,0H212Z" style="fill: rgb(38, 50, 56); transform-origin: 216.2px 195.75px;" id="elpeju3u61rjs" class="animable"></path><rect x="217.74" y="342.81" width="21.29" height="21.29" style="fill: rgb(5, 36, 97); transform-origin: 228.385px 353.455px;" id="el42kgwzbcqx" class="animable"></rect><path d="M280,345.11c0,.1-7.12.18-15.9.18s-15.9-.08-15.9-.18,7.11-.19,15.9-.19S280,345,280,345.11Z" style="fill: rgb(5, 36, 97); transform-origin: 264.1px 345.105px;" id="elzieaxoz03nk" class="animable"></path><path d="M305.34,351.63c0,.1-12.79.18-28.57.18s-28.58-.08-28.58-.18,12.79-.18,28.58-.18S305.34,351.53,305.34,351.63Z" style="fill: rgb(38, 50, 56); transform-origin: 276.765px 351.63px;" id="elyeeb7th9vo" class="animable"></path><path d="M304.67,356.29c0,.1-12.64.18-28.24.18s-28.24-.08-28.24-.18,12.64-.18,28.24-.18S304.67,356.19,304.67,356.29Z" style="fill: rgb(38, 50, 56); transform-origin: 276.43px 356.29px;" id="elmd1k9to2avp" class="animable"></path><path d="M281.54,360.74c0,.1-7.47.18-16.68.18s-16.67-.08-16.67-.18,7.46-.18,16.67-.18S281.54,360.64,281.54,360.74Z" style="fill: rgb(38, 50, 56); transform-origin: 264.865px 360.74px;" id="elvhe5njpnml" class="animable"></path><g id="el8slqoraazqq"><g style="opacity: 0.3; transform-origin: 228.385px 353.455px;" class="animable"><rect x="217.74" y="342.81" width="21.29" height="21.29" id="elufbfp9b71r" class="animable" style="transform-origin: 228.385px 353.455px;"></rect></g></g><rect x="217.74" y="377.47" width="21.29" height="21.29" style="fill: rgb(5, 36, 97); transform-origin: 228.385px 388.115px;" id="elakai7w0yhgh" class="animable"></rect><path d="M280,379.76c0,.1-7.12.18-15.9.18s-15.9-.08-15.9-.18,7.11-.18,15.9-.18S280,379.66,280,379.76Z" style="fill: rgb(5, 36, 97); transform-origin: 264.1px 379.76px;" id="elybxkvmy778h" class="animable"></path><path d="M305.34,386.28c0,.1-12.79.19-28.57.19s-28.58-.09-28.58-.19,12.79-.18,28.58-.18S305.34,386.18,305.34,386.28Z" style="fill: rgb(38, 50, 56); transform-origin: 276.765px 386.285px;" id="elerioays2xkk" class="animable"></path><path d="M304.67,391c0,.1-12.64.18-28.24.18s-28.24-.08-28.24-.18,12.64-.19,28.24-.19S304.67,390.85,304.67,391Z" style="fill: rgb(38, 50, 56); transform-origin: 276.43px 390.995px;" id="elyiclnski0e" class="animable"></path><path d="M281.54,395.39c0,.1-7.47.18-16.68.18s-16.67-.08-16.67-.18,7.46-.18,16.67-.18S281.54,395.29,281.54,395.39Z" style="fill: rgb(38, 50, 56); transform-origin: 264.865px 395.39px;" id="ele3m0sa88zm" class="animable"></path><g id="el54ihneziqv3"><g style="opacity: 0.3; transform-origin: 228.385px 388.115px;" class="animable"><rect x="217.74" y="377.47" width="21.29" height="21.29" id="el9rqcjgob0e7" class="animable" style="transform-origin: 228.385px 388.115px;"></rect></g></g><g id="ellc8ny9utvs8"><rect x="237.71" y="222.25" width="49.29" height="65.58" style="fill: rgb(5, 36, 97); transform-origin: 262.355px 255.04px; transform: rotate(-89.68deg);" class="animable"></rect></g><polygon points="228.58 279.51 251.66 248.99 265.74 268.24 275.42 258.05 294.17 279.87 228.58 279.51" style="fill: rgb(5, 36, 97); transform-origin: 261.375px 264.43px;" id="el7miog7wso0h" class="animable"></polygon><path d="M271.89,245.35a5.16,5.16,0,1,1-5.13-5.19A5.16,5.16,0,0,1,271.89,245.35Z" style="fill: rgb(5, 36, 97); transform-origin: 266.73px 245.32px;" id="elol508t8na7" class="animable"></path><g id="elx7utb30nv3e"><g style="opacity: 0.2; transform-origin: 261.375px 264.43px;" class="animable"><polygon points="228.58 279.51 251.66 248.99 265.74 268.24 275.42 258.05 294.17 279.87 228.58 279.51" id="el3zuwk0dn7zf" class="animable" style="transform-origin: 261.375px 264.43px;"></polygon></g></g><g id="elpatm10emqi"><g style="opacity: 0.2; transform-origin: 266.73px 245.32px;" class="animable"><path d="M271.89,245.35a5.16,5.16,0,1,1-5.13-5.19A5.16,5.16,0,0,1,271.89,245.35Z" id="elao3w1fxd4uq" class="animable" style="transform-origin: 266.73px 245.32px;"></path></g></g><path d="M304.05,289.24c0,.14-19.05.26-42.54.26s-42.54-.12-42.54-.26S238,289,261.51,289,304.05,289.1,304.05,289.24Z" style="fill: rgb(38, 50, 56); transform-origin: 261.51px 289.25px;" id="ela8jefwx4dno" class="animable"></path><path d="M304.05,294.78c0,.14-19.05.26-42.54.26s-42.54-.12-42.54-.26,19.05-.26,42.54-.26S304.05,294.63,304.05,294.78Z" style="fill: rgb(38, 50, 56); transform-origin: 261.51px 294.78px;" id="el0p3e34uyz0co" class="animable"></path><path d="M275.38,321.32H247.64a7.27,7.27,0,0,1-7.27-7.27h0a7.27,7.27,0,0,1,7.27-7.27h27.74a7.26,7.26,0,0,1,7.27,7.27h0A7.26,7.26,0,0,1,275.38,321.32Z" style="fill: rgb(5, 36, 97); transform-origin: 261.51px 314.05px;" id="elglo72vff09g" class="animable"></path><path d="M319.94,328.55c0,.14-26.22.26-58.56.26s-58.57-.12-58.57-.26,26.22-.26,58.57-.26S319.94,328.4,319.94,328.55Z" style="fill: rgb(224, 224, 224); transform-origin: 261.375px 328.55px;" id="elzo279dtmlj" class="animable"></path><path d="M285.65,218.21c0,.15-10.81.26-24.14.26s-24.13-.11-24.13-.26,10.8-.26,24.13-.26S285.65,218.07,285.65,218.21Z" style="fill: rgb(5, 36, 97); transform-origin: 261.515px 218.21px;" id="el8gcdt824vb7" class="animable"></path><path d="M290.48,314.05a1.58,1.58,0,1,1-1.58-1.58A1.58,1.58,0,0,1,290.48,314.05Z" style="fill: rgb(5, 36, 97); transform-origin: 288.9px 314.05px;" id="eljjp49u9juc" class="animable"></path><path d="M354.47,209.81a1.59,1.59,0,0,1-.38,0l-1.14,0-4.39,0L332.2,210l.18-.17c0,15.32,0,37.68,0,62.53,0,15.24-.09,29.55-.12,41.71v.23H332l-31.23-.1-8.76-.06-2.31,0-.59,0-.2,0,.2,0,.59,0,2.31,0,8.76-.06,31.23-.1-.22.23c0-12.17,0-26.47.05-41.71.08-24.85.15-47.21.2-62.53v-.18h.17l16.36.08,4.39,0,1.14,0Z" style="fill: rgb(5, 36, 97); transform-origin: 321.69px 262.045px;" id="elt8ljwomxpqo" class="animable"></path><circle cx="385.94" cy="268.09" r="7.58" style="fill: rgb(255, 255, 255); transform-origin: 385.94px 268.09px;" id="el26bzre16kkd" class="animable"></circle><polygon points="384.07 268.09 384.07 264.68 387.03 266.38 389.99 268.09 387.03 269.8 384.07 271.5 384.07 268.09" style="fill: rgb(5, 36, 97); transform-origin: 387.03px 268.09px;" id="el3spo7iv46c5" class="animable"></polygon><g id="elx1vj9wi29jc"><rect x="365.6" y="156.35" width="38.91" height="51.77" style="fill: rgb(69, 90, 100); transform-origin: 385.055px 182.235px; transform: rotate(-89.68deg);" class="animable"></rect></g><polygon points="358.39 201.55 376.61 177.47 387.73 192.66 395.37 184.61 410.17 201.84 358.39 201.55" style="fill: rgb(38, 50, 56); transform-origin: 384.28px 189.655px;" id="elvkfkd9d3ng9" class="animable"></polygon><path d="M392.59,174.59a4.08,4.08,0,1,1-4.06-4.1A4.09,4.09,0,0,1,392.59,174.59Z" style="fill: rgb(38, 50, 56); transform-origin: 388.51px 174.57px;" id="elkvf8ats0srl" class="animable"></path><rect x="365.1" y="209.27" width="40.08" height="2.68" style="fill: rgb(69, 90, 100); transform-origin: 385.14px 210.61px;" id="elbe5fyidhe38" class="animable"></rect><path d="M413.88,219.65c0,.15-12.87.27-28.73.27s-28.74-.12-28.74-.27,12.86-.26,28.74-.26S413.88,219.51,413.88,219.65Z" style="fill: rgb(38, 50, 56); transform-origin: 385.145px 219.655px;" id="elg5kv96cx7x8" class="animable"></path><path d="M413.88,227c0,.15-12.87.27-28.73.27s-28.74-.12-28.74-.27,12.86-.26,28.74-.26S413.88,226.85,413.88,227Z" style="fill: rgb(38, 50, 56); transform-origin: 385.145px 227.005px;" id="ely8814zd2bvk" class="animable"></path><path d="M413.88,234.33c0,.15-12.87.26-28.73.26s-28.74-.11-28.74-.26,12.86-.26,28.74-.26S413.88,234.19,413.88,234.33Z" style="fill: rgb(38, 50, 56); transform-origin: 385.145px 234.33px;" id="elobkw3gkw25" class="animable"></path><path d="M413.88,241.67c0,.15-12.87.26-28.73.26s-28.74-.11-28.74-.26,12.86-.26,28.74-.26S413.88,241.53,413.88,241.67Z" style="fill: rgb(38, 50, 56); transform-origin: 385.145px 241.67px;" id="elrs2nr8sm2b" class="animable"></path><path d="M356.05,209.81a1.58,1.58,0,1,1-1.58-1.58A1.58,1.58,0,0,1,356.05,209.81Z" style="fill: rgb(5, 36, 97); transform-origin: 354.47px 209.81px;" id="el0cvcaprrkmoh" class="animable"></path><path d="M387.47,291.22a1.54,1.54,0,1,1-1.53-1.35A1.45,1.45,0,0,1,387.47,291.22Z" style="fill: rgb(5, 36, 97); transform-origin: 385.942px 291.409px;" id="elwq1xtydavp" class="animable"></path><path d="M387.47,326.88a1.54,1.54,0,1,1-1.53-1.36A1.46,1.46,0,0,1,387.47,326.88Z" style="fill: rgb(5, 36, 97); transform-origin: 385.941px 327.059px;" id="el3fidq7ux1p" class="animable"></path><path d="M385.94,326.88c-.14,0-.26-8-.26-17.83s.12-17.83.26-17.83.26,8,.26,17.83S386.08,326.88,385.94,326.88Z" style="fill: rgb(5, 36, 97); transform-origin: 385.94px 309.05px;" id="el90e845yejtq" class="animable"></path><path d="M261.37,205.69s0-.1,0-.27,0-.47,0-.8c0-.73,0-1.76,0-3.08,0-2.72-.05-6.62-.08-11.5,0-9.83,0-23.57-.09-39.38l.25.26H243.93l-51.26-.07-15.53-.08-4.22-.05-1.1,0a1.7,1.7,0,0,1-.37,0l.37,0,1.1,0,4.22-.05,15.53-.08,51.26-.08h17.7v.25c0,15.81-.07,29.55-.09,39.38,0,4.88-.06,8.78-.08,11.5,0,1.32,0,2.35,0,3.08,0,.33,0,.59,0,.8A1,1,0,0,1,261.37,205.69Z" style="fill: rgb(5, 36, 97); transform-origin: 216.54px 178.1px;" id="el0wxw84lcyr" class="animable"></path><path d="M263,205.69a1.59,1.59,0,1,1-1.59-1.58A1.59,1.59,0,0,1,263,205.69Z" style="fill: rgb(5, 36, 97); transform-origin: 261.41px 205.7px;" id="elate874wby06" class="animable"></path><path d="M173,150.66a1.58,1.58,0,1,1-1.58-1.58A1.59,1.59,0,0,1,173,150.66Z" style="fill: rgb(5, 36, 97); transform-origin: 171.42px 150.66px;" id="elbett51vujso" class="animable"></path></g><g id="freepik--Character--inject-72" class="animable" style="transform-origin: 125.472px 307.368px;"><path d="M142.07,153.28l5,6.49s2.42,3.73.54,4.53c-1.66.7-2.74-1.39-2.74-1.39s-1.06-4.76-3.12-3.6c-.29.17.21,3.55.49,5.26a2.46,2.46,0,0,0,.94,1.58l5.48,4.2a7.14,7.14,0,0,0,3.5,1.42l1.95.23,1.61,3.2,8.86-3.61-7-9.12-3.79-5.8a2.28,2.28,0,0,0-2.08-.49l-.87.22-.66-.65a1.48,1.48,0,0,0-1.48-.39l-.54.15L146.62,154c-.49-.49-3.87-3.64-4.5-3.36A1.76,1.76,0,0,0,142.07,153.28Z" style="fill: rgb(255, 190, 157); transform-origin: 153.039px 162.911px;" id="eljn1xfrdni7m" class="animable"></path><path d="M152.12,159.44a7,7,0,0,0-.51-.73,3.3,3.3,0,0,0-1.85-1,9.25,9.25,0,0,1-1.47-1.63,3.06,3.06,0,0,1-.45-.78,7.6,7.6,0,0,1,.54.72,13.19,13.19,0,0,0,1.46,1.55c.18.06.38.1.58.17a3,3,0,0,1,1.28.92,2.68,2.68,0,0,1,.34.56A.77.77,0,0,1,152.12,159.44Z" style="fill: rgb(235, 153, 110); transform-origin: 149.98px 157.37px;" id="elfagr68kgfqq" class="animable"></path><path d="M153.14,158.13a1.14,1.14,0,0,0-.3-.35,1.11,1.11,0,0,0-1-.18h-.05l0,0-.11-.11a9.13,9.13,0,0,1-1.18-1.38,10.61,10.61,0,0,1,1.29,1.27l.11.11-.08,0a1.16,1.16,0,0,1,1.16.26C153.14,157.91,153.17,158.13,153.14,158.13Z" style="fill: rgb(235, 153, 110); transform-origin: 151.825px 157.12px;" id="el0n4se3xoizq8" class="animable"></path><polygon points="143 436.09 139.87 464.77 155.31 466.77 158.51 438.05 143 436.09" style="fill: rgb(5, 36, 97); transform-origin: 149.19px 451.43px;" id="elr0h7fhc4vth" class="animable"></polygon><path d="M147.61,464.68c.13,0,.85-6.26,1.6-14s1.25-14.05,1.12-14.06-.84,6.26-1.59,14S147.48,464.67,147.61,464.68Z" style="fill: rgb(38, 50, 56); transform-origin: 148.97px 450.65px;" id="eljd7iznvhgc" class="animable"></path><polygon points="140.09 462.8 155.53 464.75 155.31 466.77 139.87 464.77 140.09 462.8" style="fill: rgb(38, 50, 56); transform-origin: 147.7px 464.785px;" id="elhkr3jyf9nua" class="animable"></polygon><path d="M156.33,457.59s-.08-.25-.33-.67a11.49,11.49,0,0,0-1.22-1.62,10.73,10.73,0,0,0-2.33-1.94,8.29,8.29,0,0,0-9.83.78,7.2,7.2,0,0,0-1.31,1.56c-.25.41-.35.66-.32.68a15.84,15.84,0,0,1,1.85-2,8.27,8.27,0,0,1,6-1.77,9.56,9.56,0,0,1,5.65,2.91C155.72,456.73,156.26,457.64,156.33,457.59Z" style="fill: rgb(38, 50, 56); transform-origin: 148.657px 454.848px;" id="elbl75rfn24yp" class="animable"></path><g id="eliibbb068ar9"><g style="opacity: 0.3; transform-origin: 149.69px 447.155px;" class="animable"><polygon points="157.6 446.22 157.25 449.38 141.78 447.31 142.04 444.93 157.6 446.22" id="eljx8mhc5ilp" class="animable" style="transform-origin: 149.69px 447.155px;"></polygon></g></g><polygon points="120.78 437.99 122 466.82 137.56 466.47 136.4 437.58 120.78 437.99" style="fill: rgb(5, 36, 97); transform-origin: 129.17px 452.2px;" id="el20uihesxars" class="animable"></polygon><path d="M129.64,465.56c.13,0-.11-6.32-.54-14.1s-.88-14.08-1-14.07.11,6.32.54,14.1S129.51,465.56,129.64,465.56Z" style="fill: rgb(38, 50, 56); transform-origin: 128.872px 451.475px;" id="elwjdxbt4xs6f" class="animable"></path><polygon points="121.92 464.83 137.48 464.43 137.56 466.47 122 466.82 121.92 464.83" style="fill: rgb(38, 50, 56); transform-origin: 129.74px 465.625px;" id="elauv2nwmzwlg" class="animable"></polygon><path d="M137.19,457.24a2,2,0,0,0-.43-.61,9.82,9.82,0,0,0-1.45-1.42,10.63,10.63,0,0,0-2.59-1.57,8.28,8.28,0,0,0-9.6,2.25,6.94,6.94,0,0,0-1.06,1.74,2,2,0,0,0-.22.72,16.66,16.66,0,0,1,1.53-2.25,8.29,8.29,0,0,1,5.71-2.66,9.55,9.55,0,0,1,6,2C136.46,456.47,137.13,457.29,137.19,457.24Z" style="fill: rgb(38, 50, 56); transform-origin: 129.515px 455.656px;" id="elwcge2t4m2e8" class="animable"></path><g id="eljiigxepwr08"><g style="opacity: 0.3; transform-origin: 129.005px 447.535px;" class="animable"><polygon points="136.73 445.81 136.86 448.98 121.25 449.26 121.15 446.87 136.73 445.81" id="elykcx18bbm9" class="animable" style="transform-origin: 129.005px 447.535px;"></polygon></g></g><path d="M138.21,374.6l-.61-78.9H106.94s-2.42,19.58-1.27,27.48S115,374.71,115,374.71s2.65,57.94,4,72.82l19.14-1.72Z" style="fill: rgb(38, 50, 56); transform-origin: 121.785px 371.615px;" id="elak3a8b6lqn" class="animable"></path><path d="M157,279.06a38.81,38.81,0,0,1,11.67,21.87c2.13,13.74-4.31,68.69-4.31,68.69l-5.43,76.19H140l.61-73.36-3.27-54.63-2.13-17.28Z" style="fill: rgb(38, 50, 56); transform-origin: 152.156px 362.435px;" id="ellfzcghikx7a" class="animable"></path><path d="M140.18,368.51a1.39,1.39,0,0,1-.08-.47c0-.37-.08-.82-.13-1.36-.09-1.27-.21-3-.36-5-.28-4.24-.62-10.1-.92-16.57s-.5-12.34-.57-16.59c0-2.13,0-3.85,0-5l0-1.36a1.78,1.78,0,0,1,.05-.48,1.5,1.5,0,0,1,.06.48c0,.37,0,.82.06,1.36,0,1.27.11,3,.18,5,.19,4.32.44,10.14.72,16.57s.57,12.26.77,16.58c.08,2.06.15,3.76.2,5,0,.54,0,1,0,1.36A1.35,1.35,0,0,1,140.18,368.51Z" style="fill: rgb(69, 90, 100); transform-origin: 139.156px 345.095px;" id="eliu9i3siwcxn" class="animable"></path><path d="M163.32,373a22.64,22.64,0,0,1-2.77-.18,40.79,40.79,0,0,0-13.2,1.24,21.31,21.31,0,0,1-2.69.68,11.57,11.57,0,0,1,2.59-1,32.25,32.25,0,0,1,13.34-1.24A10.78,10.78,0,0,1,163.32,373Z" style="fill: rgb(69, 90, 100); transform-origin: 153.99px 373.511px;" id="eltpf6kd1euk" class="animable"></path><path d="M133,373.7c0,.09-.92-.19-2.39-.41a18.57,18.57,0,0,0-5.76,0,18.75,18.75,0,0,0-5.46,1.84c-1.32.69-2.07,1.25-2.12,1.18a7,7,0,0,1,1.94-1.5,16.08,16.08,0,0,1,5.55-2,15.91,15.91,0,0,1,5.92.1A7.3,7.3,0,0,1,133,373.7Z" style="fill: rgb(69, 90, 100); transform-origin: 125.135px 374.448px;" id="elfpi4996h5e5" class="animable"></path><path d="M133.19,374.7a19.59,19.59,0,0,1-5.63,2.09,19.68,19.68,0,0,1-6,.8c0-.15,2.65-.5,5.84-1.3S133.14,374.55,133.19,374.7Z" style="fill: rgb(69, 90, 100); transform-origin: 127.375px 376.139px;" id="elk5p2t84wb6l" class="animable"></path><path d="M139.18,320.88a4.05,4.05,0,0,1-.7.79c-.23.25-.54.53-.9.85s-.78.7-1.27,1.07a24.35,24.35,0,0,1-3.6,2.42,16.57,16.57,0,0,1-5.05,1.87h0l-.92.22a24,24,0,0,1-10.28-.05,20.36,20.36,0,0,1-3-.9,4.2,4.2,0,0,1-1-.49c0-.09,1.54.54,4.1,1a25.63,25.63,0,0,0,10.1-.1l.9-.22h0a17,17,0,0,0,4.89-1.78,27.12,27.12,0,0,0,3.61-2.28C138.05,321.86,139.12,320.81,139.18,320.88Z" style="fill: rgb(69, 90, 100); transform-origin: 125.82px 324.754px;" id="elgyd7icnnt3i" class="animable"></path><path d="M145.64,301.42s.08.32.2.87.27,1.4.46,2.37c.38,2.09.92,5,1.56,8.41l-.14-.17L156,316l-.29.08,4.15-5.38,1-1.3-.05.19c-.46-4.07-.9-7.9-1.28-11.26l.35.17a21.56,21.56,0,0,1-5.68,1.83c-1.73.35-3.26.57-4.52.73s-2.26.26-2.94.31a5.59,5.59,0,0,1-1.05,0,6.64,6.64,0,0,1,1-.17l2.92-.43c1.25-.2,2.77-.46,4.48-.84a22.33,22.33,0,0,0,5.53-1.85l.3-.17,0,.34c.4,3.35.85,7.18,1.34,11.25v.11l-.07.08-1,1.3-4.16,5.37-.11.15-.18-.07c-3-1.16-5.76-2.23-8.2-3.19l-.12,0,0-.12c-.55-3.52-1-6.45-1.35-8.58-.15-1-.26-1.74-.35-2.34A4.18,4.18,0,0,1,145.64,301.42Z" style="fill: rgb(69, 90, 100); transform-origin: 153.45px 307.21px;" id="elsb5q6krg28" class="animable"></path><path d="M128.79,304.16a5.16,5.16,0,0,1,0,.8c0,.61,0,1.39-.09,2.36-.1,2.16-.24,5.12-.41,8.68v.12l-.11.06-7.81,4.07-.17.09-.13-.14-4.72-4.89-1.14-1.17-.07-.08V314c0-4.11.07-8,.09-11.34v-.34l.32.13a21.8,21.8,0,0,0,5.69,1.24c1.75.19,3.28.28,4.55.34l2.94.11a7.12,7.12,0,0,1,1,.06,5.5,5.5,0,0,1-1,.08c-.68,0-1.68,0-2.95,0s-2.82-.08-4.58-.24a21.43,21.43,0,0,1-5.84-1.19l.32-.21c0,3.38,0,7.24,0,11.34l-.07-.18,1.13,1.17,4.72,4.9-.3-.05,7.84-4-.12.18c.26-3.5.48-6.41.63-8.53.08-1,.15-1.79.2-2.41A6.65,6.65,0,0,1,128.79,304.16Z" style="fill: rgb(69, 90, 100); transform-origin: 121.473px 311.33px;" id="ellvccpqgedzn" class="animable"></path><path d="M137.7,317.61a8.39,8.39,0,0,1-.59-2.21,41.35,41.35,0,0,1-.69-5.48,42.72,42.72,0,0,1,0-5.52,8.54,8.54,0,0,1,.33-2.27c.16,0-.11,3.49.15,7.76S137.85,317.57,137.7,317.61Z" style="fill: rgb(69, 90, 100); transform-origin: 137.026px 309.87px;" id="elb0igm6re1i5" class="animable"></path><path d="M163.32,322.35a3,3,0,0,1-.76.37,18.45,18.45,0,0,1-2.17.73,28.09,28.09,0,0,1-7.5,1,28.51,28.51,0,0,1-7.5-1,20.16,20.16,0,0,1-2.17-.74,2.59,2.59,0,0,1-.76-.37c0-.09,1.15.31,3,.75a32.54,32.54,0,0,0,14.82,0C162.16,322.66,163.29,322.26,163.32,322.35Z" style="fill: rgb(69, 90, 100); transform-origin: 152.89px 323.389px;" id="elh74hq9f6azg" class="animable"></path><path d="M115.57,197.41s-13.8,7.54-17.84,9.31l5.51,26.37,8.68,31.63-5.82,33.36s20.46,3.62,30.49,2.32c13.73-1.78,31.23-6.83,31.23-6.83L154.19,252.9l3.49-28.08-5.85-23.67-14.26-1.69Z" style="fill: rgb(5, 36, 97); transform-origin: 132.775px 249.046px;" id="el7joobxtlo4o" class="animable"></path><g id="elfy9l2ixopz8"><g style="opacity: 0.3; transform-origin: 127.987px 221.744px;" class="animable"><path d="M109.09,223.78c.93,1.85,3.06,2.74,5.06,3.29s4.14,1,5.71,2.31c2.78,2.42,2.7,7,5.27,9.61a6.38,6.38,0,0,0,6.53,1.58c1.42-.49,2.67-1.48,4.16-1.62,1-.1,2.06.23,3.1.15,2.91-.2,4.62-3.29,5.78-6s2.44-5.71,2.14-8.72c-.44-4.51-4.19-8.15-4.77-12.64-.21-1.67,0-3.36-.15-5s-.92-3.44-2.44-4.14" id="elk22ftpascx" class="animable" style="transform-origin: 127.987px 221.744px;"></path></g></g><path d="M164.07,194.2,153.4,172.83l8.57-5.5s10.73,11.06,12.76,13.21c0,0,12.34,11.38,9.12,16.87a36.18,36.18,0,0,1-7.08,8.28Z" style="fill: rgb(5, 36, 97); transform-origin: 168.893px 186.51px;" id="eluxy3ikx6nw" class="animable"></path><path d="M97.73,206.72c-.19.56-28.72,40-30.25,44.21q-.12.34-.24.72a16.35,16.35,0,0,0,3.58,15.68l23.53,26.24,10.28-11.89L88.27,252.85,103.9,235.6Z" style="fill: rgb(5, 36, 97); transform-origin: 85.5942px 250.145px;" id="elg6iv498e74" class="animable"></path><path d="M115.61,283.44c-1,.06-2.69,1.38-3.46,2a1.3,1.3,0,0,1-.9.29h0a1.3,1.3,0,0,1-1.16-.93l-1-3.43a3.19,3.19,0,0,0-2.48,1.56l-1.13,1.94-2-1.88-9.15,10.45s3.6,3.89,5.89,3.95,13-8.77,13-8.77l2.85-2.5S118.41,283.27,115.61,283.44Z" style="fill: rgb(255, 190, 157); transform-origin: 105.658px 289.38px;" id="elvkbonrb5it" class="animable"></path><path d="M145.26,200.37l8.1.36,11.53-8.82,16.32,9s-7.35,7.86-14.27,15.91c-5.59,6.51-9.57,10.58-9.57,10.58Z" style="fill: rgb(5, 36, 97); transform-origin: 163.235px 209.655px;" id="elyqt0tfcvdaf" class="animable"></path><path d="M152.86,269.85a11,11,0,0,1-1.16,1.23c-.76.77-1.92,1.84-3.39,3.12a87.46,87.46,0,0,1-26,15.52c-1.82.68-3.31,1.19-4.35,1.5a9.83,9.83,0,0,1-1.64.43,11.77,11.77,0,0,1,1.57-.62c1-.37,2.49-.93,4.28-1.66a99.91,99.91,0,0,0,13.54-6.73,101,101,0,0,0,12.35-8.72c1.49-1.24,2.68-2.26,3.48-3A9.38,9.38,0,0,1,152.86,269.85Z" style="fill: rgb(38, 50, 56); transform-origin: 134.59px 280.75px;" id="elxy44dnd9j7b" class="animable"></path><path d="M124.53,265.19c.12.07-2.76,4.74-6.42,10.41s-6.74,10.2-6.86,10.13,2.75-4.74,6.42-10.42S124.41,265.11,124.53,265.19Z" style="fill: rgb(38, 50, 56); transform-origin: 117.89px 275.46px;" id="elqtra7x51agn" class="animable"></path><path d="M156.39,225.18c-.07,0,0-1.16-.13-3s-.22-4.44-.48-7.28-.6-5.4-.95-7.23-.72-2.92-.64-2.95a8.84,8.84,0,0,1,1,2.87,53.92,53.92,0,0,1,1.11,7.26c.26,2.86.35,5.45.33,7.33A12.2,12.2,0,0,1,156.39,225.18Z" style="fill: rgb(38, 50, 56); transform-origin: 155.41px 214.95px;" id="elo2nz7it2l3p" class="animable"></path><path d="M176,192.73a14.47,14.47,0,0,1-1.88-.77,13.54,13.54,0,0,0-4.69-1,8.62,8.62,0,0,0-4.6,1.07c-1.05.63-1.57,1.24-1.64,1.18a4,4,0,0,1,1.44-1.49,8.07,8.07,0,0,1,4.81-1.28,11.83,11.83,0,0,1,4.83,1.21A5.43,5.43,0,0,1,176,192.73Z" style="fill: rgb(38, 50, 56); transform-origin: 169.595px 191.821px;" id="eldtce2q4efr" class="animable"></path><path d="M170.83,188.17c0,.2-2.27-.06-4.48,1.37s-2.95,3.63-3.12,3.53a3.2,3.2,0,0,1,.48-1.37,7.2,7.2,0,0,1,2.35-2.59,6.79,6.79,0,0,1,3.33-1.08A3,3,0,0,1,170.83,188.17Z" style="fill: rgb(38, 50, 56); transform-origin: 167.03px 190.536px;" id="elg0txwyx8bjn" class="animable"></path><g id="el8d2gife8u0l"><g style="opacity: 0.3; transform-origin: 118.347px 272.049px;" class="animable"><path d="M125.43,260.39c-.16-.93-.76-1.94-1.71-2s-1.75,1.11-2.17,2.11l-10,23.67-.35,1.54c4-6.37,8-12.49,12-18.86C124.51,264.9,125.8,262.69,125.43,260.39Z" id="el3vfkh4hn7ub" class="animable" style="transform-origin: 118.347px 272.049px;"></path></g></g><g id="eleosrtfin2i8"><g style="opacity: 0.3; transform-origin: 168.98px 190.626px;" class="animable"><path d="M163.23,192.77c1.24-1.81,2.3-3.87,4.45-4.32a8.66,8.66,0,0,1,6.32,1.13c.41.25.85.68.7,1.14a1,1,0,0,1-.84.59c-1.89.47-3.85-.08-5.78-.33a5.12,5.12,0,0,0-4.7,2" id="elg4050bz2nts" class="animable" style="transform-origin: 168.98px 190.626px;"></path></g></g><path d="M102.22,231.39a14.68,14.68,0,0,1-1.18-2.74,62.56,62.56,0,0,1-3.35-14,14.71,14.71,0,0,1-.18-3,19.57,19.57,0,0,1,.55,2.93c.3,1.81.76,4.31,1.41,7s1.37,5.15,1.92,6.91A18.58,18.58,0,0,1,102.22,231.39Z" style="fill: rgb(38, 50, 56); transform-origin: 99.8584px 221.52px;" id="ely8vf3v9swpl" class="animable"></path><path d="M117.17,205.39l20.25.3-1.9-18.3s1.5.75,1.79-6.75,1-20.22,1-20.22h0A26.07,26.07,0,0,0,112,163l-1.13.83Z" style="fill: rgb(255, 190, 157); transform-origin: 124.59px 181.847px;" id="elo9by0cb25ik" class="animable"></path><path d="M113,173.11c-.13-.06-5.11-1.67-5.09,3.46s5.17,4.05,5.18,3.9S113,173.11,113,173.11Z" style="fill: rgb(255, 190, 157); transform-origin: 110.5px 176.745px;" id="el697fhb3nx79" class="animable"></path><path d="M137.1,172.69c.12-.05,4.73-1.16,4.42,4s-5.38,3.75-5.38,3.61S137.1,172.69,137.1,172.69Z" style="fill: rgb(255, 190, 157); transform-origin: 138.837px 176.568px;" id="el92dm0yf2h3n" class="animable"></path><path d="M125.07,151.44s-7-.26-9.49,1c-4.15,2.12-7.37,8-7.43,15.34s3.25,17.21,8.61,22.11,9.6,5.79,9.6,5.79,11.35-6.19,12.62-15.25,2.13-17.78-1.41-22.17S127.64,151.55,125.07,151.44Z" style="fill: rgb(38, 50, 56); transform-origin: 124.117px 173.549px;" id="elp00ljwuac1" class="animable"></path><path d="M109.09,172.51c-.41-4.64-.8-9.44.66-13.86s5.26-8.43,9.92-8.61a31.77,31.77,0,0,0,4.47,0,19.2,19.2,0,0,0,3.62-1.33,9.39,9.39,0,0,1,6.47-.4,5.63,5.63,0,0,1,3.9,4.85,8.33,8.33,0,0,0,.11,2.69A9.13,9.13,0,0,0,140,158a5.75,5.75,0,0,1,1,4.16,17.4,17.4,0,0,1-1.18,4.23L136,176.63" style="fill: rgb(38, 50, 56); transform-origin: 124.888px 162.273px;" id="elaziup4hl2i9" class="animable"></path><path d="M120.79,175.11a9.22,9.22,0,0,1,13.23,7.3c.33,3,.33,3.52,2.29,5.86,1.21,1.45,2.38,1.36,3.8,2.59a5.68,5.68,0,0,1,1.29,6.67c3.67-.18,7.11-.42,8.36,3-5.48-1.13-11,4-16.45,2.85a11.88,11.88,0,0,1-4.94-1.81c-1.62-1.22-2.5-3.16-3.32-5l-4.41-10c-1-2.25-2-4.59-2-7.05s1.45-5.07,3.83-5.69" style="fill: rgb(38, 50, 56); transform-origin: 134.2px 188.69px;" id="elkuyi6j64dll" class="animable"></path><path d="M118.58,178.46a7.73,7.73,0,0,1,2.66-8.54,7.86,7.86,0,0,1,9,.35,7.46,7.46,0,0,1,3.07,6.36,4.87,4.87,0,0,1-4.51,4.5" style="fill: rgb(5, 36, 97); transform-origin: 125.758px 174.901px;" id="el64gm8s9ukwi" class="animable"></path><path d="M130.6,173.49a8.17,8.17,0,0,0-10.66.53c-2.61,2.62-2.88,8-2.08,11.63.85,3.89,3.23,7.66,2.44,11.56-.48,2.38-2.11,4.79-1.17,7,.77,1.81,2.91,2.6,4.07,4.18,1.71,2.33.86,5.6-.28,8.25s-2.56,5.51-1.76,8.29c.62,2.15,2.43,3.7,3.88,5.41s2.61,4.11,1.64,6.13a5.71,5.71,0,0,0,9-5.75,6.84,6.84,0,0,1,1.92,4.39,9.21,9.21,0,0,0,7-14.13c-1.24-1.94-3.24-3.51-3.66-5.77-.5-2.7,1.45-5.34,1.2-8.07-.23-2.45-2.16-4.38-4.14-5.84s-4.19-2.78-5.47-4.88c-2.07-3.4-1.11-7.73-.31-11.63s1.19-8.5-1.61-11.33" style="fill: rgb(38, 50, 56); transform-origin: 131.753px 204.682px;" id="elkjfzwhrxpr" class="animable"></path><path d="M118.78,175.87c-2.77,1.87-3,5.84-2.57,9.16s.92,7.05-1.12,9.7c-1.38,1.78-3.79,2.81-4.49,5-.86,2.61,1.28,5.23,1.53,8a10.08,10.08,0,0,1-1.61,5.64,22.58,22.58,0,0,0-2.52,5.36,5.43,5.43,0,0,0,1.41,5.47,7.07,7.07,0,0,0,3.48,1.25,43,43,0,0,0,13.35-.05c1.32-5.43,2.64-10.92,2.64-16.5,0-11.1-5.25-21.67-5.39-32.76" style="fill: rgb(38, 50, 56); transform-origin: 118.323px 200.908px;" id="elrnxx3etno5i" class="animable"></path><path d="M126.55,232.77a3.43,3.43,0,0,1-.45-.5l-1.24-1.49a65.26,65.26,0,0,1-4.35-5.65,16.73,16.73,0,0,1-2.15-4.47,8.9,8.9,0,0,1,.11-5.67,38.23,38.23,0,0,1,2.83-5.6c1-1.86,2-3.95,1.75-6.18s-1.69-4.05-2.35-6.17a6.16,6.16,0,0,1-.3-1.65,5,5,0,0,1,.26-1.64,8.36,8.36,0,0,1,1.74-2.59,15.53,15.53,0,0,0,1.78-2.23,5.3,5.3,0,0,0,.72-2.5,14,14,0,0,0-.88-4.74,16.08,16.08,0,0,1-.85-4,6.23,6.23,0,0,1,.62-3,4.15,4.15,0,0,1,1.26-1.5,2.34,2.34,0,0,1,.61-.31,4.44,4.44,0,0,0-1.68,1.9,5.93,5.93,0,0,0-.52,2.92,16.66,16.66,0,0,0,.91,3.9,14.19,14.19,0,0,1,1,4.86,5.71,5.71,0,0,1-.75,2.72,14.91,14.91,0,0,1-1.82,2.31,8.13,8.13,0,0,0-1.63,2.45,4.46,4.46,0,0,0-.23,1.46,6.5,6.5,0,0,0,.28,1.5c.62,2,2.15,3.85,2.39,6.28a7.87,7.87,0,0,1-.43,3.45,20.48,20.48,0,0,1-1.4,3,37.67,37.67,0,0,0-2.81,5.5,8.46,8.46,0,0,0-.15,5.41,16.55,16.55,0,0,0,2,4.38c1.61,2.52,3.19,4.38,4.2,5.72.51.67.91,1.19,1.16,1.55A3.28,3.28,0,0,1,126.55,232.77Z" style="fill: rgb(69, 90, 100); transform-origin: 122.25px 202.825px;" id="elvas0clgg7ol" class="animable"></path><path d="M115.65,194.2a16.09,16.09,0,0,0,1.07-3.75,25.2,25.2,0,0,0,.17-4.23c0-1.6-.16-3.38-.06-5.26a12.3,12.3,0,0,1,1.29-5.14,7.81,7.81,0,0,1,3-3.1A5.49,5.49,0,0,1,124,172a3.66,3.66,0,0,1,.79.13.86.86,0,0,1,.26.1,10.43,10.43,0,0,1-1,0,5.51,5.51,0,0,0-2.66.82,7.79,7.79,0,0,0-2.8,3,12.4,12.4,0,0,0-1.19,5c-.1,1.84,0,3.6,0,5.22a23.2,23.2,0,0,1-.28,4.3,10.64,10.64,0,0,1-.87,2.78A3.09,3.09,0,0,1,115.65,194.2Z" style="fill: rgb(69, 90, 100); transform-origin: 120.35px 183.099px;" id="el587wz4d708f" class="animable"></path><path d="M145.08,230a4.12,4.12,0,0,1,.07-.64,11.39,11.39,0,0,0,0-1.83,23,23,0,0,0-1.58-6.52c-.57-1.27-1.47-2.6-2.14-4.16a9.85,9.85,0,0,1-.78-2.55,8.91,8.91,0,0,1,0-2.82c.14-1,.36-1.9.48-2.86a9.14,9.14,0,0,0-.06-2.95,9.82,9.82,0,0,0-2.89-5.38c-1.52-1.48-3.65-2.16-5.22-3.64a9.65,9.65,0,0,1-2.71-5.35,19.89,19.89,0,0,1-.18-5.41c.13-1.69.33-3.25.43-4.67a19.13,19.13,0,0,0-.05-3.82,5.27,5.27,0,0,0-1.06-2.61,3.59,3.59,0,0,0-2-1.24,1.73,1.73,0,0,1,.64.09,3.37,3.37,0,0,1,1.56,1,5.25,5.25,0,0,1,1.2,2.69,19.48,19.48,0,0,1,.13,3.89c-.08,1.44-.26,3-.37,4.68a19.83,19.83,0,0,0,.22,5.29,9.24,9.24,0,0,0,2.59,5.07c1.45,1.38,3.58,2.05,5.23,3.63a10.31,10.31,0,0,1,3,5.67,10.1,10.1,0,0,1,.06,3.1c-.14,1-.36,1.95-.5,2.87a8.42,8.42,0,0,0-.07,2.69,10.42,10.42,0,0,0,.72,2.44c.64,1.54,1.51,2.84,2.09,4.19a21.58,21.58,0,0,1,1.44,6.65,8.86,8.86,0,0,1-.08,1.85c0,.21-.09.37-.11.47S145.09,230,145.08,230Z" style="fill: rgb(69, 90, 100); transform-origin: 136.368px 201.774px;" id="elmskm4h62uj" class="animable"></path><path d="M141.11,201.77a10.79,10.79,0,0,0,.43-1.24,6.8,6.8,0,0,0-.2-3.51,7,7,0,0,0-3.45-3.78,7,7,0,0,1-2.72-1.78,14.42,14.42,0,0,1-1.71-3.05,16.76,16.76,0,0,1-.82-6.61,14.69,14.69,0,0,0-.63-5.26,6.39,6.39,0,0,0-2-2.88,12.82,12.82,0,0,0-1.11-.7s.12,0,.34.08a4,4,0,0,1,.89.46,6.18,6.18,0,0,1,2.24,2.91,14.47,14.47,0,0,1,.77,5.39,16.93,16.93,0,0,0,.82,6.41,14.59,14.59,0,0,0,1.62,2.92,4.78,4.78,0,0,0,1.17,1c.44.27.91.45,1.38.69a7.26,7.26,0,0,1,3.58,4.09,6.63,6.63,0,0,1,.05,3.68,3.71,3.71,0,0,1-.41.92C141.2,201.69,141.12,201.78,141.11,201.77Z" style="fill: rgb(69, 90, 100); transform-origin: 135.448px 187.365px;" id="el9s1syc2kn97" class="animable"></path><path d="M117.17,174.7a6.71,6.71,0,0,1-2-1.24,13.85,13.85,0,0,1-5.14-10.1,6.27,6.27,0,0,1,.21-2.39c.09,0,0,.92.15,2.36a15.34,15.34,0,0,0,5,9.85C116.44,174.15,117.22,174.62,117.17,174.7Z" style="fill: rgb(69, 90, 100); transform-origin: 113.584px 167.835px;" id="el6zgrcasepc5" class="animable"></path><path d="M116.24,176.06a10.08,10.08,0,0,1-3.52-1.82,10.24,10.24,0,0,1-2.94-2.66,27.85,27.85,0,0,1,3.23,2.23A29.34,29.34,0,0,1,116.24,176.06Z" style="fill: rgb(69, 90, 100); transform-origin: 113.01px 173.82px;" id="el4n23gk7nbvw" class="animable"></path><path d="M138.14,162.93a14.94,14.94,0,0,1-5.84,10.6,39,39,0,0,0,3.59-4.93A37.48,37.48,0,0,0,138.14,162.93Z" style="fill: rgb(69, 90, 100); transform-origin: 135.22px 168.23px;" id="el54eckym6vx7" class="animable"></path><path d="M139.77,166.91a19.86,19.86,0,0,1-4.23,9.1c-.13-.09,1.07-2,2.23-4.5S139.62,166.87,139.77,166.91Z" style="fill: rgb(69, 90, 100); transform-origin: 137.65px 171.46px;" id="elwj52o1mmvoa" class="animable"></path><path d="M137.41,154a17.66,17.66,0,0,1-1-1.9,6.27,6.27,0,0,0-1.35-1.77,3.53,3.53,0,0,0-2.43-.92,6.65,6.65,0,0,0-4.36,2.15,12.37,12.37,0,0,1-1.55,1.47,6.84,6.84,0,0,1,1.29-1.73,8.67,8.67,0,0,1,1.8-1.54,5.46,5.46,0,0,1,2.82-.87,3.9,3.9,0,0,1,2.75,1.08,6.16,6.16,0,0,1,1.36,2A5.91,5.91,0,0,1,137.41,154Z" style="fill: rgb(69, 90, 100); transform-origin: 132.065px 151.445px;" id="elkxm8nija3wr" class="animable"></path><path d="M135.4,232.1a3.17,3.17,0,0,1-.48-.41c-.3-.29-.73-.71-1.26-1.29a16.74,16.74,0,0,1-1.75-2.27,8,8,0,0,1-1.25-3.59,6.21,6.21,0,0,1,.29-2.23,11.64,11.64,0,0,1,1-2.17c.81-1.42,1.81-2.91,1.86-4.71a10,10,0,0,0-1.57-5.35c-1-1.7-2.35-3.29-3.54-5.07a14,14,0,0,1-2.38-5.8,23,23,0,0,1-.1-5.84c.37-3.69,1.1-6.93,1.21-9.71a18.16,18.16,0,0,0-.63-6.49c-.47-1.47-.94-2.21-.89-2.24a2.52,2.52,0,0,1,.34.53,9.71,9.71,0,0,1,.74,1.65,17.46,17.46,0,0,1,.81,6.57c-.07,2.81-.76,6.09-1.1,9.74a22.79,22.79,0,0,0,.12,5.7,13.66,13.66,0,0,0,2.31,5.6c1.17,1.75,2.53,3.34,3.56,5.11a10.42,10.42,0,0,1,1.6,5.62c-.07,2-1.16,3.52-2,4.9a11.89,11.89,0,0,0-1,2.09,5.64,5.64,0,0,0-.3,2.08,7.74,7.74,0,0,0,1.13,3.46,17.86,17.86,0,0,0,1.65,2.29c.5.6.91,1,1.19,1.34A3.09,3.09,0,0,1,135.4,232.1Z" style="fill: rgb(69, 90, 100); transform-origin: 130.653px 203.515px;" id="el6hxyu2d196" class="animable"></path></g><g id="freepik--Floor--inject-72" class="animable" style="transform-origin: 250px 466.77px;"><path d="M475.08,466.77c0,.15-100.78.26-225.07.26s-225.09-.11-225.09-.26,100.76-.26,225.09-.26S475.08,466.63,475.08,466.77Z" style="fill: rgb(38, 50, 56); transform-origin: 250px 466.77px;" id="eli5qqn2uo6m" class="animable"></path></g><defs>     <filter id="active" height="200%">         <feMorphology in="SourceAlpha" result="DILATED" operator="dilate" radius="2"></feMorphology>                <feFlood flood-color="#32DFEC" flood-opacity="1" result="PINK"></feFlood>        <feComposite in="PINK" in2="DILATED" operator="in" result="OUTLINE"></feComposite>        <feMerge>            <feMergeNode in="OUTLINE"></feMergeNode>            <feMergeNode in="SourceGraphic"></feMergeNode>        </feMerge>    </filter>    <filter id="hover" height="200%">        <feMorphology in="SourceAlpha" result="DILATED" operator="dilate" radius="2"></feMorphology>                <feFlood flood-color="#ff0000" flood-opacity="0.5" result="PINK"></feFlood>        <feComposite in="PINK" in2="DILATED" operator="in" result="OUTLINE"></feComposite>        <feMerge>            <feMergeNode in="OUTLINE"></feMergeNode>            <feMergeNode in="SourceGraphic"></feMergeNode>        </feMerge>            <feColorMatrix type="matrix" values="0   0   0   0   0                0   1   0   0   0                0   0   0   0   0                0   0   0   1   0 "></feColorMatrix>    </filter></defs></svg>